<svg id="agency" xmlns="http://www.w3.org/2000/svg" xmlns:xlink="http://www.w3.org/1999/xlink" width="468.189" height="126.147" viewBox="0 0 468.189 126.147">
  <defs>
    <clipPath id="clip-path">
      <rect id="Rectangle_667" data-name="Rectangle 667" width="468.189" height="126.147" fill="none"/>
    </clipPath>
  </defs>
  <path id="Path_1862" data-name="Path 1862" d="M87.494,33.755V65.534h13.85V63.813H89.529V33.755Z" transform="translate(156.173 60.252)" fill="#fff"/>
  <g id="Group_1692" data-name="Group 1692" transform="translate(0 0)">
    <g id="Group_1691" data-name="Group 1691" clip-path="url(#clip-path)">
      <path id="Path_1863" data-name="Path 1863" d="M105.526,36.226c5.433,0,9.054,3.033,10.413,6.745V36.543h2.036v24.58h-2.036V54.648c-1.359,3.76-5.024,6.837-10.413,6.837-6.879,0-11.858-4.935-11.858-12.674,0-7.787,4.98-12.585,11.858-12.585m.273,1.766c-5.929,0-10.048,4.03-10.048,10.82S99.87,59.675,105.8,59.675c5.748,0,10.14-4.211,10.14-10.864,0-6.564-4.392-10.82-10.14-10.82" transform="translate(167.194 64.663)" fill="#fff"/>
      <path id="Path_1864" data-name="Path 1864" d="M117.509,41.738c6.879,0,11.858,4.8,11.858,12.585,0,7.739-4.98,12.674-11.858,12.674-5.386,0-9.054-3.033-10.413-6.79v6.428H105.06v-33.5H107.1v15.39a10.655,10.655,0,0,1,10.413-6.79m-.317,1.766c-5.7,0-10.1,4.255-10.1,10.82,0,6.653,4.392,10.864,10.1,10.864,5.977,0,10.1-4.074,10.1-10.864s-4.119-10.82-10.1-10.82" transform="translate(187.529 59.151)" fill="#fff"/>
      <path id="Path_1865" data-name="Path 1865" d="M125.119,61.486c-5.386,0-9.19-2.445-9.642-6.971h2.083c.315,3.122,2.9,5.205,7.558,5.205,3.849,0,6.11-2.264,6.11-4.935,0-6.79-15.072-2.852-15.072-12.176,0-3.439,3.348-6.383,8.146-6.383,5.116,0,8.511,2.671,8.784,7.244h-2.039c-.181-3.077-2.442-5.523-6.79-5.523-3.576,0-6.066,2.128-6.066,4.662,0,7.606,14.939,3.576,15.028,12.176,0,3.849-3.395,6.7-8.1,6.7" transform="translate(206.123 64.663)" fill="#fff"/>
      <path id="Path_1866" data-name="Path 1866" d="M58.146,54.238l4.712,11.293H75.563V33.757h-8.87L60.775,47.935l-2.629,6.3" transform="translate(103.789 60.256)" fill="#d8006b"/>
      <rect id="Rectangle_666" data-name="Rectangle 666" width="7.739" height="31.771" transform="translate(128.844 94.015)" fill="#0090df"/>
      <path id="Path_1867" data-name="Path 1867" d="M99.737,33.757H77.287v5.885H90.822l-13.535,20v5.882h22.45V59.646H86.2l13.532-20Z" transform="translate(137.955 60.256)" fill="#0090df"/>
      <path id="Path_1868" data-name="Path 1868" d="M84.964,48.874a9.89,9.89,0,0,0,1.674-5.386,9.041,9.041,0,0,0-3.077-6.879q-3.079-2.849-8.6-2.852H69.31L80.444,52.274a8.657,8.657,0,0,0,4.52-3.4" transform="translate(123.716 60.256)" fill="#d8006b"/>
      <path id="Path_1869" data-name="Path 1869" d="M64.734,51.524,60.593,41.6l-4.138,9.92Z" transform="translate(100.769 74.261)" fill="#fff"/>
      <path id="Path_1870" data-name="Path 1870" d="M68.9,54.238l-2.629-6.3L60.351,33.757h-8.87V65.531H64.186L68.9,54.238" transform="translate(91.892 60.256)" fill="#0090df"/>
      <path id="Path_1871" data-name="Path 1871" d="M72.578,33.757h-5.74V65.528H91.685Z" transform="translate(119.303 60.256)" fill="#0090df"/>
      <path id="Path_1872" data-name="Path 1872" d="M40.664,67.85q-11.5-11.17-11.5-28.34t11.5-28.343Q52.165.006,68.784,0A39.68,39.68,0,0,1,91.676,6.823a35.575,35.575,0,0,1,13.978,18.929H83.2q-4.4-8.476-14.086-8.475T53.873,23.332q-5.56,6.053-5.559,16.178t5.559,16.178q5.556,6.053,14.911,6.054,6.713,0,10.951-3.356a16.194,16.194,0,0,0,5.67-8.97H63.612V35.107h42.042V49.416q-2.093,10.565-11.555,19.7a34.764,34.764,0,0,1-11.173,7.155,36.59,36.59,0,0,1-14.142,2.754q-16.618,0-28.12-11.173" transform="translate(52.059 0.001)" fill="#fff"/>
      <path id="Path_1873" data-name="Path 1873" d="M107.751.316V14.623H79.8V31.241h24.653V45.55H79.8V63.49h27.956V77.8H60.978V.316Z" transform="translate(108.844 0.566)" fill="#fff"/>
      <path id="Path_1874" data-name="Path 1874" d="M133.879.316H152.7V77.8H133.879L102.4,29.04V77.8H83.582V.316H102.4l31.476,48.756Z" transform="translate(149.191 0.566)" fill="#fff"/>
      <path id="Path_1875" data-name="Path 1875" d="M124.207,67.85q-11.5-11.17-11.5-28.34t11.5-28.343Q135.708.006,152.327,0a39.68,39.68,0,0,1,22.892,6.823A35.575,35.575,0,0,1,189.2,25.752H166.745q-4.4-8.476-14.086-8.475t-15.242,6.054q-5.56,6.053-5.559,16.178t5.559,16.178q5.556,6.053,15.242,6.054t14.086-8.475H189.2A35.581,35.581,0,0,1,175.219,72.2a39.7,39.7,0,0,1-22.892,6.823q-16.618,0-28.12-11.173" transform="translate(201.18 0.001)" fill="#fff"/>
      <path id="Path_1876" data-name="Path 1876" d="M187.714,77.656H168.893V52.781L142.149.4H163.5l14.858,34.887L193.108.4h21.35L187.714,52.781Z" transform="translate(253.731 0.707)" fill="#fff"/>
      <path id="Path_1877" data-name="Path 1877" d="M36.8,27.18,27.905.316h-1.05L0,77.8H20.032l4.3-12.986L29.075,50.5Z" transform="translate(-0.001 0.566)" fill="#0090df"/>
      <path id="Path_1878" data-name="Path 1878" d="M24.374.316H23.116l-8.9,26.864L21.938,50.5l4.74,14.306,4.3,12.986H51.118Z" transform="translate(25.373 0.566)" fill="#d8006b"/>
      <path id="Path_1879" data-name="Path 1879" d="M26.031.316H11.021l7.5,22.658Z" transform="translate(19.671 0.566)" fill="#fff"/>
      <path id="Path_1880" data-name="Path 1880" d="M11.478,18.337,6.738,32.646h30.5L32.5,18.337Z" transform="translate(12.027 32.732)" fill="#0090df"/>
    </g>
  </g>
</svg>
