<svg width="70" height="70" viewBox="0 0 70 70" fill="none" xmlns="http://www.w3.org/2000/svg">
<path d="M31.2935 0.318091C30.5596 0.492193 29.2462 0.898429 28.3963 1.22729C26.2524 2.09779 4.11778 14.7879 2.97822 15.8131C-0.942665 19.3532 -1.00061 25.5628 2.86233 29.1415C3.86669 30.0701 6.26171 31.5209 15.8611 36.9761C22.3315 40.6709 28.1066 43.8628 28.6861 44.0756C32.7808 45.6425 37.4356 45.6231 41.3758 44.0369C42.2643 43.6887 48.2132 40.4001 54.6064 36.744C67.4699 29.393 67.8756 29.1029 69.0151 26.6654C70.3865 23.7444 70.3285 20.9781 68.822 18.1538C67.6438 15.9292 66.8326 15.3682 54.5484 8.38479C42.1098 1.32401 42.3995 1.47877 40.8736 0.937118C38.1116 -0.0107669 34.1328 -0.281591 31.2935 0.318091Z" fill="#1D2445"/>
<path d="M19.478 22.3952C19.5044 22.3475 19.5433 22.3191 19.5946 22.3098C19.6538 22.2942 19.6934 22.2586 19.7134 22.203C19.7326 22.1546 19.7334 22.1115 19.7156 22.0737C19.6985 22.0288 19.6964 21.9782 19.7093 21.9219C19.7122 21.8934 19.7222 21.8656 19.7393 21.8386C19.7571 21.8044 19.775 21.7702 19.7928 21.736C19.8228 21.6526 19.8492 21.5689 19.8721 21.4849C19.8957 21.3937 19.9189 21.306 19.9418 21.222C19.9718 21.1386 20.0046 21.0628 20.0403 20.9944C20.076 20.926 20.1245 20.8733 20.1858 20.8363C20.213 20.7095 20.2612 20.5884 20.3304 20.473C20.4067 20.3583 20.4628 20.2308 20.4985 20.0905C20.5092 20.0556 20.5132 20.0164 20.5104 19.9729C20.5076 19.9294 20.5115 19.8902 20.5222 19.8553C20.5444 19.7784 20.5733 19.7057 20.609 19.6373C20.6518 19.5697 20.6843 19.4974 20.7064 19.4204C20.7678 19.2395 20.8286 19.0657 20.8885 18.899C20.9492 18.7251 21.0053 18.5616 21.0567 18.4085C21.086 18.3323 21.1003 18.2617 21.0997 18.1969C21.0997 18.1249 21.1101 18.0576 21.1308 17.9949C21.1666 17.8545 21.2016 17.7213 21.2359 17.5952C21.2702 17.4691 21.2828 17.3444 21.2736 17.2211C21.2637 17.1769 21.2466 17.132 21.2224 17.0864C21.1989 17.0336 21.1829 16.978 21.1744 16.9196C21.1638 16.8825 21.1599 16.8498 21.1628 16.8213C21.1663 16.7856 21.1628 16.7493 21.1522 16.7122C21.1301 16.6452 21.092 16.5946 21.0379 16.5604C20.9916 16.5197 20.9453 16.479 20.899 16.4384C20.8528 16.3977 20.8143 16.3507 20.7837 16.2972C20.761 16.2373 20.7617 16.1582 20.786 16.0599C20.8409 16.0151 20.9044 15.9927 20.9764 15.9927C21.049 15.9857 21.1239 15.9932 21.2008 16.0154C21.2856 16.0311 21.3693 16.0575 21.4519 16.0946C21.5353 16.1246 21.6154 16.1507 21.6924 16.1729C21.7978 16.1979 21.9111 16.2165 22.0322 16.2287C22.1541 16.2338 22.2795 16.2392 22.4085 16.2451C22.5446 16.2516 22.6767 16.2613 22.805 16.2742C22.9404 16.2879 23.0679 16.3079 23.1876 16.3344C23.2225 16.3451 23.2464 16.3583 23.2592 16.374C23.2791 16.3904 23.3034 16.4 23.3319 16.4029C23.3896 16.4015 23.4373 16.3919 23.4751 16.3742C23.5207 16.35 23.5728 16.3336 23.6312 16.3251C23.8984 16.3161 24.1464 16.3555 24.3751 16.4433C24.6116 16.5247 24.8456 16.5951 25.0772 16.6544C25.3016 16.713 25.5267 16.7645 25.7526 16.8089C25.9856 16.8539 26.1722 16.9303 26.3125 17.0381C26.3851 17.103 26.4499 17.1743 26.5069 17.252C26.5645 17.3226 26.6304 17.3832 26.7045 17.4339C26.8191 17.5102 26.942 17.5766 27.0731 17.633C27.2113 17.6901 27.338 17.7532 27.4534 17.8225C27.4876 17.8403 27.5175 17.8649 27.5432 17.8963C27.5695 17.9205 27.5998 17.9416 27.634 17.9594C27.6874 18.0008 27.7383 18.0311 27.7867 18.0504C27.8352 18.0697 27.8818 18.1068 27.9267 18.1617C27.973 18.2023 28.0075 18.2526 28.0302 18.3125C28.0601 18.3731 28.09 18.4337 28.1199 18.4942C28.174 18.6005 28.233 18.6928 28.2971 18.7712C28.3612 18.8497 28.4085 18.9516 28.439 19.077C28.4468 19.1426 28.451 19.2078 28.4517 19.2727C28.4595 19.3382 28.4712 19.4006 28.4868 19.4597C28.528 19.6222 28.5517 19.8154 28.558 20.0391C28.5721 20.2565 28.5355 20.4759 28.4484 20.6975C28.4291 20.7459 28.4031 20.7901 28.3703 20.83C28.3375 20.8698 28.3114 20.914 28.2922 20.9624C28.1665 21.2089 28.0274 21.4468 27.8747 21.6761C27.7228 21.8983 27.5249 22.1123 27.281 22.3181C27.2097 22.3109 27.137 22.3179 27.0629 22.3393C27.0051 22.4126 26.9541 22.4902 26.9099 22.5722C26.8728 22.6548 26.8225 22.7253 26.759 22.7837C26.7269 22.8164 26.6845 22.8445 26.6317 22.868C26.5861 22.8922 26.5433 22.9239 26.5034 22.9631C26.3351 23.1332 26.1482 23.3087 25.9429 23.4896C25.7382 23.6633 25.5336 23.801 25.329 23.9027C25.2684 23.9326 25.2007 23.9618 25.1259 23.9902C25.0581 24.0194 24.9983 24.0421 24.9462 24.0585C24.9092 24.0692 24.8728 24.0727 24.8372 24.0691C24.8087 24.0662 24.7759 24.0701 24.7388 24.0808C24.6569 24.1085 24.5842 24.1516 24.5207 24.2099C24.4579 24.2612 24.392 24.3085 24.3228 24.3519C24.1754 24.3155 24.0314 24.3154 23.891 24.3516C23.7513 24.3807 23.6066 24.3877 23.457 24.3726C23.2219 24.3489 22.9611 24.3298 22.6746 24.3154C22.3946 24.3087 22.1113 24.2982 21.8249 24.2837C21.7244 24.2808 21.6239 24.2778 21.5235 24.2749C21.4301 24.2727 21.3264 24.2658 21.2124 24.2543C21.0265 24.2428 20.8483 24.2248 20.678 24.2005C20.5078 24.1761 20.3407 24.1557 20.1768 24.1392C19.9709 24.1112 19.777 24.1061 19.5953 24.1237C19.4207 24.1421 19.2255 24.1512 19.0095 24.1511C18.8656 24.1509 18.7273 24.1658 18.5948 24.1956C18.4551 24.2247 18.3354 24.2343 18.2356 24.2242C18.2 24.2206 18.1615 24.2095 18.1202 24.191C18.0782 24.1795 18.0404 24.1613 18.0069 24.1364C17.9735 24.1114 17.9475 24.0836 17.929 24.0529C17.9034 24.0216 17.8963 23.9849 17.9077 23.9428C17.9177 23.915 17.9423 23.8851 17.9815 23.8531C18.02 23.8282 18.0656 23.804 18.1184 23.7805C18.1711 23.757 18.2235 23.7371 18.2756 23.7208C18.3283 23.6973 18.3736 23.6767 18.4114 23.6589C18.5867 23.5614 18.7254 23.471 18.8274 23.3877C18.9293 23.3044 19.0395 23.1752 19.158 23C19.2001 22.9394 19.2375 22.8892 19.2703 22.8494C19.311 22.8031 19.3441 22.7596 19.3698 22.719C19.3955 22.6784 19.418 22.6339 19.4373 22.5855C19.4566 22.537 19.4701 22.4736 19.478 22.3952ZM22.56 23.3105C22.6305 23.3248 22.6932 23.3455 22.7481 23.3727C22.81 23.4005 22.8727 23.4212 22.9361 23.4348C23.0779 23.4563 23.2023 23.4364 23.3092 23.3752C23.4233 23.3148 23.5259 23.2603 23.6172 23.212C23.6849 23.1828 23.7558 23.1575 23.83 23.1362C23.9041 23.1149 23.964 23.0922 24.0096 23.068C24.1686 22.9904 24.3158 22.8865 24.4513 22.7562C24.5939 22.6266 24.7273 22.4817 24.8514 22.3215C24.9755 22.1612 25.0893 21.9964 25.1928 21.8269C25.3041 21.6509 25.4072 21.485 25.5021 21.329C25.562 21.2343 25.6216 21.1431 25.6808 21.0555C25.7407 20.9608 25.7932 20.8689 25.8381 20.7799C25.8931 20.663 25.9188 20.5505 25.9154 20.4421C25.9126 20.3267 25.9344 20.2173 25.9808 20.1141C25.9987 20.0799 26.0308 20.0471 26.0771 20.0158C26.1242 19.9773 26.1538 19.9335 26.1659 19.8844C26.1802 19.8139 26.1639 19.7618 26.1169 19.7283C26.0777 19.6884 26.0578 19.636 26.0571 19.5711C26.0543 19.5276 26.0622 19.4853 26.0808 19.4439C26.1 19.3955 26.1122 19.3463 26.1172 19.2965C26.1273 19.1967 26.1234 19.092 26.1057 18.9822C26.0958 18.866 26.0745 18.7559 26.0418 18.6519C26.0099 18.5407 25.9661 18.4391 25.9106 18.3471C25.8551 18.2552 25.7942 18.1806 25.728 18.1236C25.6618 18.0665 25.5635 18.0062 25.4331 17.9427C25.3028 17.8792 25.1607 17.8253 25.0068 17.781C24.8536 17.7295 24.699 17.6924 24.543 17.6694C24.3941 17.6472 24.2722 17.6421 24.1774 17.6542C24.067 17.679 23.9796 17.7242 23.9154 17.7897C23.8584 17.8559 23.8038 17.9332 23.7517 18.0215C23.7075 18.1035 23.6625 18.1925 23.6168 18.2887C23.5719 18.3777 23.5134 18.4582 23.4413 18.5301C23.41 18.5557 23.3608 18.5795 23.2938 18.6016C23.2346 18.6172 23.195 18.6528 23.175 18.7084C23.1565 18.7497 23.1586 18.8003 23.1813 18.8602C23.2048 18.9129 23.2144 18.9607 23.2101 19.0034C23.2036 19.0675 23.1836 19.1231 23.1501 19.1701C23.1173 19.21 23.0909 19.2577 23.0709 19.3133C23.023 19.4308 22.9784 19.5523 22.937 19.6777C22.8963 19.7959 22.8477 19.9206 22.7913 20.0517C22.7364 20.1685 22.6739 20.2882 22.604 20.4107C22.5419 20.5268 22.498 20.6411 22.4722 20.7537C22.4151 20.9638 22.36 21.1886 22.3071 21.428C22.262 21.661 22.2009 21.8744 22.1238 22.0681C22.0674 22.1992 22.0003 22.3292 21.9225 22.4581C21.8519 22.5877 21.8176 22.7138 21.8196 22.8364C21.8196 22.9084 21.8409 22.9825 21.8836 23.0588C21.9334 23.1358 21.9729 23.2082 22.0021 23.2759C22.1018 23.2859 22.1948 23.2917 22.281 23.2932C22.368 23.2876 22.461 23.2933 22.56 23.3105ZM29.9491 24.7679C29.8066 24.7536 29.6965 24.7749 29.6188 24.8318C29.5489 24.8823 29.4951 24.9525 29.4572 25.0422C29.3739 25.0122 29.2745 24.9986 29.159 25.0014C29.0507 25.0049 28.9388 25.008 28.8234 25.0107C28.7151 25.0142 28.6075 25.0106 28.5006 24.9998C28.4001 24.9969 28.3164 24.9704 28.2495 24.9205C28.216 24.8955 28.1904 24.8642 28.1726 24.8264C28.1555 24.7815 28.1345 24.7398 28.1096 24.7013C28.0854 24.6556 28.0609 24.6136 28.036 24.5751C28.0039 24.5359 27.9861 24.4981 27.9826 24.4617C27.9727 24.4175 27.9895 24.3581 28.033 24.2833C28.0772 24.2014 28.1154 24.144 28.1475 24.1113C28.1782 24.0928 28.212 24.0782 28.2491 24.0675C28.2933 24.0576 28.3346 24.0402 28.3731 24.0153C28.4808 23.9469 28.5617 23.8579 28.616 23.7482C28.678 23.6321 28.7305 23.5402 28.7733 23.4726C28.8268 23.442 28.8874 23.4121 28.9551 23.3829C29.0307 23.3474 29.0645 23.2968 29.0568 23.2312C28.9962 23.1891 28.9228 23.1673 28.8366 23.1659C28.7511 23.1572 28.666 23.1451 28.5812 23.1293C28.4387 23.1149 28.2972 23.0899 28.1569 23.0541C28.0165 23.0184 27.8901 22.9877 27.7775 22.9619C27.5958 22.9076 27.4441 22.806 27.3224 22.6569C27.1935 22.5072 27.1502 22.3301 27.1924 22.1256C27.2445 22.1092 27.3025 22.1043 27.3667 22.1108C27.4237 22.1165 27.4874 22.1265 27.558 22.1408C27.6214 22.1544 27.6884 22.1684 27.7589 22.1827C27.823 22.1892 27.8847 22.1846 27.9438 22.1689C28.0036 22.2182 28.062 22.2456 28.119 22.2514C28.1689 22.2564 28.2199 22.2508 28.2719 22.2344C28.3168 22.2173 28.3617 22.2003 28.4066 22.1832C28.4523 22.159 28.4932 22.1451 28.5296 22.1416C28.5659 22.1381 28.598 22.1413 28.6258 22.1513C28.6536 22.1613 28.6853 22.1681 28.7209 22.1717C28.7779 22.1774 28.8356 22.1761 28.8941 22.1676C28.9532 22.1519 29.0227 22.1409 29.1025 22.1346C29.2108 22.1311 29.322 22.1351 29.436 22.1466C29.5507 22.151 29.6491 22.1393 29.731 22.1116C29.7831 22.0952 29.8437 22.0653 29.9128 22.0219C29.9827 21.9714 30.034 21.9262 30.0669 21.8863C30.0847 21.8521 30.0915 21.8204 30.0872 21.7912C30.0908 21.7556 30.1015 21.7207 30.1194 21.6865C30.1672 21.5689 30.2386 21.4681 30.3334 21.3841C30.4354 21.3008 30.5206 21.2051 30.5891 21.0968C30.6162 21.042 30.6348 21.0006 30.6448 20.9729C30.6619 20.9458 30.6751 20.9219 30.6844 20.9013C30.6937 20.8806 30.7033 20.8564 30.7133 20.8286C30.7304 20.8015 30.7597 20.7613 30.801 20.7079C30.8752 20.6146 30.949 20.5249 31.0225 20.4387C31.1031 20.3533 31.194 20.2725 31.2953 20.1963C31.2996 20.1535 31.3103 20.1186 31.3274 20.0916C31.3453 20.0574 31.3631 20.0232 31.3809 19.989C31.5812 19.93 31.7484 19.8425 31.8825 19.7264C32.0165 19.6104 32.1513 19.4872 32.2868 19.3569C32.2869 19.285 32.3061 19.2365 32.3446 19.2116C32.3839 19.1796 32.4071 19.1279 32.4142 19.0567C32.4178 19.0211 32.4075 18.9804 32.3833 18.9348C32.367 18.8828 32.3613 18.8318 32.3664 18.7819C32.3721 18.7249 32.3992 18.6701 32.4477 18.6174C32.5041 18.5583 32.5526 18.5056 32.5932 18.4593C32.656 18.4081 32.7045 18.3554 32.7387 18.3012C32.7801 18.2478 32.8211 18.198 32.8617 18.1517C32.9252 18.0933 32.988 18.042 33.05 17.9979C33.1191 17.9545 33.1858 17.9 33.25 17.8345C33.2828 17.7947 33.3089 17.7505 33.3281 17.7021C33.3553 17.6472 33.3916 17.6077 33.4373 17.5835C33.5057 17.5472 33.5973 17.5312 33.712 17.5356C33.8267 17.54 33.9414 17.5443 34.0562 17.5487C34.1923 17.5552 34.3398 17.5557 34.4987 17.5501C34.6654 17.5381 34.8286 17.5258 34.9883 17.5131C35.155 17.5011 35.3143 17.492 35.4661 17.4857C35.6257 17.473 35.77 17.4695 35.899 17.4753C36.0287 17.474 36.1502 17.4827 36.2635 17.5013C36.3839 17.5206 36.4811 17.5196 36.5553 17.4983C36.6464 17.5939 36.7375 17.6894 36.8287 17.785C36.9277 17.8741 37.0188 17.9697 37.1021 18.0717C37.1162 18.2171 37.1279 18.3514 37.137 18.4747C37.1462 18.598 37.1376 18.7194 37.1111 18.8391C37.0911 18.8947 37.0608 18.9456 37.0201 18.9919C36.9866 19.0389 36.9702 19.0949 36.9708 19.1597C36.96 19.2666 36.9813 19.3767 37.0347 19.49C37.0888 19.5963 37.1239 19.7114 37.1402 19.8354C37.1416 19.8931 37.1252 19.949 37.0909 20.0031C37.0645 20.0509 37.0449 20.1029 37.032 20.1592C37.0192 20.2154 37.0163 20.2799 37.0233 20.3526C37.0311 20.4182 37.0385 20.4873 37.0456 20.56C37.037 20.6455 37.0248 20.7306 37.0091 20.8154C36.9933 20.9002 36.9879 20.9896 36.9928 21.0837C36.9977 21.1778 37.0058 21.2758 37.0172 21.3777C37.0292 21.4725 37.0266 21.5694 37.0095 21.6684C36.9851 21.7667 36.9544 21.8572 36.9173 21.9398C36.8873 22.0232 36.8676 22.1112 36.8583 22.2038C36.8383 22.3313 36.8328 22.4567 36.842 22.58C36.8519 22.6962 36.8329 22.813 36.7851 22.9306C36.8349 23.0076 36.8562 23.0817 36.849 23.153C36.849 23.2249 36.8382 23.2958 36.8168 23.3656C36.7953 23.4355 36.7735 23.5088 36.7514 23.5858C36.73 23.6556 36.7295 23.7311 36.7501 23.8124C36.7594 23.8637 36.7832 23.9129 36.8216 23.96C36.8608 23.9999 36.8846 24.0491 36.8931 24.1075C36.9073 24.1809 36.909 24.2711 36.8983 24.3779C36.8953 24.4784 36.8892 24.575 36.8799 24.6676C36.864 24.8963 36.8222 25.0973 36.7543 25.2704C36.6936 25.4442 36.6493 25.6341 36.6213 25.84C36.612 25.9326 36.598 26.0356 36.5794 26.1488C36.5679 26.2628 36.5411 26.3501 36.499 26.4107C36.4591 26.4498 36.3978 26.4868 36.3151 26.5217C36.2317 26.5637 36.1611 26.5853 36.1034 26.5867C35.9958 26.5831 35.874 26.542 35.7379 26.4635C35.609 26.3857 35.5125 26.3076 35.4485 26.2292C35.3915 26.1515 35.3389 26.067 35.2905 25.9757C35.2492 25.8852 35.2047 25.7907 35.1571 25.6924C35.1165 25.5947 35.0717 25.5038 35.0226 25.4197C34.9742 25.3284 34.9173 25.2507 34.8518 25.1865C34.8183 25.1616 34.7813 25.1363 34.7407 25.1106C34.7001 25.0849 34.6705 25.0567 34.652 25.0261C34.6165 24.9505 34.5994 24.8696 34.6009 24.7834C34.6103 24.6907 34.6232 24.5985 34.6396 24.5066C34.6639 24.4082 34.6843 24.3131 34.7008 24.2212C34.7244 24.13 34.7291 24.0477 34.7149 23.9743C34.7007 23.9009 34.6775 23.8446 34.6455 23.8054C34.6142 23.759 34.5708 23.7259 34.5152 23.7059C34.4675 23.6795 34.408 23.6627 34.3367 23.6555C34.2733 23.6419 34.1957 23.6269 34.1037 23.6104C33.771 23.5553 33.4276 23.4991 33.0735 23.4418C32.7194 23.3845 32.3567 23.3407 31.9854 23.3105C31.9071 23.3026 31.8497 23.3004 31.8134 23.304C31.777 23.3075 31.7442 23.3114 31.715 23.3156C31.6865 23.3128 31.6576 23.3135 31.6284 23.3177C31.5992 23.322 31.5525 23.3209 31.4884 23.3144C31.3452 23.3072 31.2158 23.3049 31.1004 23.3077C30.9857 23.3033 30.8823 23.3289 30.7904 23.3844C30.7369 23.415 30.6763 23.4809 30.6085 23.582C30.5407 23.6831 30.4897 23.7608 30.4555 23.8149C30.4112 23.8968 30.3702 23.9826 30.3323 24.0724C30.3016 24.1629 30.2674 24.253 30.2295 24.3427C30.1995 24.4261 30.1628 24.5052 30.1192 24.5799C30.0757 24.6547 30.019 24.7174 29.9491 24.7679ZM32.9483 22.2199C33.1913 22.2372 33.4232 22.257 33.6441 22.2793C33.8728 22.2951 34.0877 22.306 34.2886 22.3119C34.3186 22.3005 34.3446 22.2923 34.3667 22.2873C34.3959 22.2831 34.4383 22.291 34.4938 22.311C34.4974 22.2753 34.517 22.2593 34.5527 22.2629C34.589 22.2594 34.6186 22.2515 34.6414 22.2395C34.6749 22.1924 34.6931 22.1547 34.696 22.1262C34.6996 22.0906 34.6954 22.0613 34.6833 22.0385C34.679 22.0093 34.6676 21.9794 34.6491 21.9487C34.6385 21.9117 34.636 21.8646 34.6418 21.8076C34.6475 21.7506 34.6604 21.6943 34.6804 21.6388C34.7082 21.5768 34.7289 21.5141 34.7425 21.4507C34.7547 21.4015 34.7529 21.3474 34.7373 21.2882C34.7288 21.2298 34.731 21.1724 34.7438 21.1161C34.756 21.067 34.7817 21.0264 34.8209 20.9943C34.8608 20.9552 34.8833 20.9107 34.8883 20.8608C34.8912 20.8323 34.8873 20.7995 34.8767 20.7624C34.8731 20.7261 34.8696 20.6897 34.8661 20.6534C34.864 20.6028 34.8654 20.5526 34.8705 20.5027C34.8826 20.4535 34.8834 20.4104 34.8727 20.3734C34.8642 20.3149 34.834 20.2579 34.782 20.2023C34.73 20.1466 34.6998 20.0896 34.6913 20.0312C34.6771 19.9578 34.6814 19.879 34.7043 19.795C34.735 19.7045 34.7547 19.6165 34.7633 19.531C34.7684 19.4091 34.7688 19.2976 34.7646 19.1964C34.7604 19.0952 34.7348 18.9919 34.6879 18.8864C34.6138 18.8357 34.5547 18.8154 34.5105 18.8253C34.4742 18.8289 34.4396 18.8506 34.4068 18.8904C34.3818 18.9239 34.3561 18.9645 34.3297 19.0122C34.3104 19.0607 34.2776 19.1006 34.2313 19.1319C34.0217 19.2835 33.8544 19.443 33.7296 19.6103C33.6055 19.7706 33.4546 19.9461 33.277 20.1369C33.205 20.2089 33.1294 20.2804 33.0503 20.3516C32.9782 20.4235 32.9091 20.5029 32.8427 20.5898C32.7835 20.6774 32.7346 20.7696 32.6961 20.8665C32.6575 20.9634 32.6392 21.0731 32.6413 21.1957C32.5999 21.2491 32.5635 21.2886 32.5322 21.3143C32.5086 21.3335 32.4815 21.3523 32.4509 21.3708C32.4202 21.3894 32.3856 21.4111 32.3471 21.436C32.3158 21.4616 32.2762 21.4972 32.2284 21.5428C32.14 21.6346 32.0441 21.7293 31.9407 21.8269C31.838 21.9173 31.7663 22.0216 31.7256 22.1399C31.8502 22.1884 31.9589 22.2174 32.0515 22.2267C32.1441 22.236 32.2336 22.2415 32.3198 22.243C32.4138 22.238 32.5079 22.2331 32.602 22.2282C32.7039 22.2169 32.8193 22.2141 32.9483 22.2199ZM39.9414 24.3932C39.8208 24.5898 39.7155 24.8131 39.6255 25.0631C39.5427 25.3139 39.4623 25.5397 39.3845 25.7406C39.3459 25.8375 39.2814 25.9066 39.1909 25.9478C39.1082 25.9827 39.0162 26.0022 38.915 26.0064C38.8131 26.0177 38.7119 26.0219 38.6115 26.019C38.511 26.0161 38.4276 26.022 38.3613 26.037C38.2951 26.0519 38.2206 26.0767 38.1379 26.1116C38.0616 26.1543 37.986 26.1899 37.9112 26.2183C37.8356 26.2539 37.7647 26.2791 37.6984 26.294C37.6393 26.3097 37.5969 26.3018 37.5712 26.2704C37.5456 26.239 37.5489 26.171 37.581 26.0663C37.6125 25.9687 37.6599 25.8547 37.7235 25.7243C37.787 25.594 37.858 25.4608 37.9365 25.3247C38.0228 25.1823 38.1042 25.0537 38.1805 24.9391C38.2319 24.8579 38.2719 24.7467 38.3005 24.6057C38.3298 24.4575 38.3531 24.3339 38.3702 24.2348C38.3738 24.1992 38.3699 24.1664 38.3586 24.1365C38.3479 24.0994 38.3479 24.0634 38.3587 24.0285C38.3694 23.9936 38.3954 23.9494 38.4368 23.896C38.4853 23.8433 38.5267 23.7899 38.5609 23.7358C38.6237 23.6126 38.6669 23.4694 38.6906 23.3062C38.7221 23.1366 38.7649 22.997 38.8192 22.8873C38.837 22.8531 38.8581 22.8228 38.8823 22.7965C38.9144 22.7637 38.9394 22.7303 38.9572 22.6961C38.9758 22.6548 38.9847 22.6017 38.9841 22.5368C38.9834 22.472 38.9859 22.4111 38.9917 22.3541C39.001 22.2614 39.0293 22.1599 39.0764 22.0495C39.1313 21.9327 39.182 21.8226 39.2284 21.7193C39.2755 21.6089 39.3113 21.5046 39.3356 21.4062C39.3677 21.3015 39.3735 21.2085 39.3529 21.1273C39.3423 21.0182 39.3388 20.9459 39.3424 20.9103C39.346 20.8747 39.3413 20.849 39.3285 20.8333C39.2965 20.7941 39.2844 20.7713 39.2922 20.7649C39.3079 20.7521 39.2958 20.7292 39.256 20.6964C39.2239 20.6572 39.1912 20.6251 39.1577 20.6002C39.1321 20.5688 39.0961 20.5328 39.0498 20.4921C39.0099 20.4593 38.9661 20.4297 38.9184 20.4033C38.8785 20.3705 38.8583 20.3216 38.8576 20.2568C38.9275 20.2063 38.9849 20.1725 39.0298 20.1554C39.0818 20.139 39.1292 20.133 39.172 20.1373C39.2154 20.1345 39.2614 20.1428 39.3098 20.162C39.359 20.1742 39.4188 20.1874 39.4894 20.2017C39.6091 20.2282 39.7156 20.2425 39.8089 20.2447C39.9094 20.2477 40.0309 20.2563 40.1734 20.2707C40.266 20.28 40.3683 20.3011 40.4801 20.334C40.5998 20.3604 40.7053 20.3855 40.7964 20.4091C40.8876 20.4326 40.9799 20.4455 41.0733 20.4478C41.1745 20.4436 41.2635 20.4525 41.3405 20.4747C41.4032 20.4954 41.4584 20.519 41.5061 20.5454C41.5545 20.5646 41.6144 20.5779 41.6856 20.5851C41.8851 20.6052 42.0761 20.6028 42.2586 20.578C42.4481 20.5539 42.6234 20.5644 42.7844 20.6094C42.84 20.6294 42.8988 20.6534 42.9607 20.6812C43.0298 20.7098 43.0954 20.738 43.1573 20.7658C43.2193 20.7936 43.2638 20.8161 43.2909 20.8332C43.3258 20.844 43.3707 20.8629 43.4255 20.89C43.4804 20.9171 43.5338 20.9585 43.5858 21.0141C43.6456 21.0633 43.7047 21.1197 43.7631 21.1831C43.8556 21.2645 43.9479 21.3493 44.0397 21.4378C44.1387 21.5269 44.2002 21.6303 44.2244 21.7479C44.235 21.7849 44.2471 21.8437 44.2606 21.9243C44.2812 22.0055 44.2897 22.064 44.2861 22.0996C44.2839 22.1929 44.2496 22.2831 44.1833 22.3699C44.2317 22.4612 44.2433 22.5595 44.2183 22.665C44.194 22.7633 44.148 22.863 44.0802 22.9642C44.0203 23.0589 43.9464 23.1486 43.8587 23.2333C43.771 23.3181 43.6918 23.3893 43.6213 23.4469C43.5043 23.5359 43.3778 23.6131 43.2416 23.6786C43.1133 23.7376 42.9743 23.7956 42.8246 23.8525C42.7426 23.8802 42.6632 23.919 42.5862 23.9688C42.5099 24.0115 42.4382 24.0439 42.3712 24.0659C42.3342 24.0766 42.3124 24.078 42.306 24.0701C42.3067 24.063 42.2854 24.0608 42.2419 24.0637C42.0965 24.0778 41.9525 24.1137 41.81 24.1713C41.6674 24.2289 41.5195 24.268 41.3663 24.2885C41.3292 24.2992 41.2893 24.3023 41.2466 24.298C41.2045 24.2866 41.1654 24.2826 41.129 24.2862C41.0207 24.2897 40.9109 24.3074 40.7997 24.3394C40.6964 24.3649 40.5906 24.3795 40.4823 24.3829C40.3811 24.3871 40.2877 24.3849 40.2022 24.3763C40.1238 24.3684 40.0369 24.374 39.9414 24.3932ZM40.701 22.1053C40.6625 22.2022 40.6275 22.2994 40.5961 22.397C40.5718 22.4953 40.5439 22.5933 40.5125 22.6909C40.4917 22.7536 40.4593 22.8259 40.415 22.9078C40.3779 22.9904 40.3443 23.0734 40.3143 23.1568C40.2851 23.233 40.2708 23.3035 40.2714 23.3684C40.2721 23.4332 40.3034 23.4796 40.3654 23.5074C40.4003 23.5181 40.4327 23.5178 40.4626 23.5064C40.4997 23.4958 40.54 23.489 40.5834 23.4862C40.6119 23.4891 40.6397 23.4991 40.6668 23.5162C40.7017 23.5269 40.7373 23.5305 40.7737 23.527C41.0395 23.5322 41.2864 23.5103 41.5145 23.4613C41.7497 23.413 41.9069 23.2813 41.9862 23.0662C42.0161 23.0548 42.0421 23.0466 42.0642 23.0417C42.0941 23.0303 42.1276 23.0193 42.1647 23.0086C42.2831 22.9054 42.3879 22.7576 42.4793 22.5653C42.5778 22.3737 42.6424 22.1966 42.6732 22.0342C42.6789 21.9772 42.6601 21.9141 42.6167 21.8449C42.5811 21.7694 42.558 21.7131 42.5474 21.676C42.536 21.6461 42.5068 21.6143 42.4598 21.5808C42.4135 21.5401 42.3597 21.5023 42.2985 21.4674C42.2379 21.4253 42.1731 21.39 42.104 21.3614C42.042 21.3336 41.9936 21.3143 41.9587 21.3036C41.8817 21.2814 41.8173 21.2785 41.7652 21.2949C41.7139 21.3041 41.6523 21.3087 41.5803 21.3086C41.4798 21.3057 41.3872 21.2963 41.3024 21.2806C41.2176 21.2649 41.1399 21.2858 41.0693 21.3435C41.035 21.4696 40.9754 21.5967 40.8905 21.7249C40.8135 21.8467 40.7503 21.9735 40.701 22.1053ZM45.9694 25.0008C45.8488 25.1974 45.7436 25.4207 45.6536 25.6708C45.5707 25.9215 45.4904 26.1474 45.4125 26.3482C45.374 26.4451 45.3094 26.5142 45.2189 26.5555C45.1362 26.5903 45.0443 26.6098 44.9431 26.614C44.8412 26.6253 44.74 26.6295 44.6395 26.6266C44.539 26.6237 44.4557 26.6297 44.3894 26.6446C44.3231 26.6595 44.2486 26.6844 44.1659 26.7192C44.0896 26.7619 44.0141 26.7975 43.9392 26.8259C43.8637 26.8615 43.7928 26.8868 43.7265 26.9017C43.6673 26.9173 43.6249 26.9094 43.5993 26.878C43.5737 26.8467 43.5769 26.7786 43.6091 26.6739C43.6405 26.5763 43.688 26.4623 43.7515 26.332C43.815 26.2016 43.886 26.0684 43.9645 25.9324C44.0509 25.7899 44.1322 25.6614 44.2085 25.5467C44.2599 25.4655 44.2999 25.3544 44.3285 25.2133C44.3579 25.0651 44.3811 24.9415 44.3983 24.8424C44.4019 24.8068 44.398 24.774 44.3866 24.7441C44.376 24.707 44.376 24.6711 44.3867 24.6361C44.3974 24.6012 44.4235 24.5571 44.4648 24.5037C44.5133 24.451 44.5547 24.3976 44.589 24.3434C44.6518 24.2202 44.695 24.077 44.7186 23.9138C44.7501 23.7443 44.793 23.6046 44.8472 23.4949C44.8651 23.4607 44.8861 23.4305 44.9104 23.4041C44.9425 23.3714 44.9674 23.3379 44.9853 23.3037C45.0038 23.2624 45.0128 23.2093 45.0121 23.1445C45.0115 23.0796 45.014 23.0187 45.0197 22.9617C45.0291 22.8691 45.0573 22.7675 45.1044 22.6571C45.1594 22.5403 45.2101 22.4303 45.2565 22.327C45.3036 22.2166 45.3393 22.1122 45.3636 22.0139C45.3958 21.9091 45.4015 21.8162 45.3809 21.7349C45.3703 21.6259 45.3668 21.5535 45.3704 21.5179C45.374 21.4823 45.3694 21.4566 45.3566 21.4409C45.3245 21.4017 45.3124 21.3789 45.3203 21.3725C45.336 21.3597 45.3239 21.3369 45.284 21.3041C45.252 21.2648 45.2192 21.2328 45.1857 21.2078C45.1601 21.1764 45.1242 21.1404 45.0779 21.0997C45.038 21.0669 44.9942 21.0373 44.9465 21.0109C44.9066 20.9781 44.8863 20.9293 44.8857 20.8644C44.9555 20.8139 45.0129 20.7801 45.0578 20.763C45.1099 20.7467 45.1572 20.7407 45.2 20.745C45.2435 20.7422 45.2894 20.7504 45.3379 20.7697C45.387 20.7818 45.4469 20.795 45.5174 20.8094C45.6371 20.8358 45.7436 20.8502 45.837 20.8524C45.9374 20.8553 46.0589 20.8639 46.2014 20.8783C46.2941 20.8876 46.3963 20.9087 46.5082 20.9416C46.6279 20.9681 46.7333 20.9931 46.8245 21.0167C46.9157 21.0403 47.008 21.0532 47.1013 21.0554C47.2025 21.0512 47.2916 21.0602 47.3685 21.0823C47.4312 21.103 47.4864 21.1266 47.5341 21.153C47.5826 21.1723 47.6424 21.1855 47.7137 21.1927C47.9132 21.2128 48.1042 21.2105 48.2866 21.1857C48.4762 21.1616 48.6515 21.1721 48.8125 21.2171C48.868 21.2371 48.9268 21.261 48.9888 21.2888C49.0579 21.3174 49.1234 21.3456 49.1854 21.3734C49.2474 21.4013 49.2919 21.4237 49.3189 21.4409C49.3539 21.4516 49.3987 21.4705 49.4536 21.4976C49.5084 21.5248 49.5618 21.5661 49.6138 21.6217C49.6736 21.671 49.7327 21.7273 49.7911 21.7908C49.8837 21.8721 49.9759 21.957 50.0678 22.0454C50.1667 22.1345 50.2283 22.2379 50.2524 22.3555C50.2631 22.3926 50.2752 22.4514 50.2886 22.5319C50.3092 22.6132 50.3177 22.6716 50.3141 22.7072C50.3119 22.8006 50.2777 22.8907 50.2113 22.9776C50.2597 23.0688 50.2714 23.1672 50.2464 23.2726C50.222 23.3709 50.176 23.4707 50.1082 23.5718C50.0483 23.6665 49.9745 23.7562 49.8868 23.841C49.799 23.9257 49.7199 23.9969 49.6493 24.0546C49.5324 24.1435 49.4058 24.2208 49.2697 24.2862C49.1413 24.3453 49.0023 24.4032 48.8527 24.4601C48.7707 24.4878 48.6912 24.5266 48.6142 24.5764C48.5379 24.6191 48.4663 24.6515 48.3993 24.6735C48.3622 24.6842 48.3405 24.6856 48.3341 24.6778C48.3348 24.6706 48.3134 24.6685 48.2699 24.6713C48.1246 24.6854 47.9806 24.7213 47.838 24.7789C47.6955 24.8365 47.5476 24.8756 47.3943 24.8961C47.3573 24.9068 47.3174 24.91 47.2746 24.9057C47.2326 24.8942 47.1934 24.8903 47.1571 24.8938C47.0487 24.8973 46.939 24.915 46.8278 24.947C46.7244 24.9726 46.6186 24.9871 46.5103 24.9906C46.4091 24.9948 46.3158 24.9925 46.2303 24.9839C46.1519 24.976 46.0649 24.9817 45.9694 25.0008ZM46.7291 22.7129C46.6905 22.8098 46.6555 22.9071 46.6241 23.0047C46.5998 23.103 46.5719 23.2009 46.5405 23.2985C46.5198 23.3612 46.4873 23.4335 46.4431 23.5154C46.4059 23.5981 46.3724 23.6811 46.3424 23.7644C46.3131 23.8406 46.2988 23.9112 46.2995 23.976C46.3001 24.0409 46.3314 24.0872 46.3934 24.115C46.4283 24.1258 46.4607 24.1254 46.4907 24.1141C46.5277 24.1034 46.568 24.0967 46.6115 24.0938C46.64 24.0967 46.6678 24.1067 46.6948 24.1238C46.7297 24.1346 46.7654 24.1381 46.8017 24.1346C47.0675 24.1398 47.3144 24.1179 47.5425 24.0689C47.7777 24.0207 47.9349 23.889 48.0142 23.6738C48.0441 23.6624 48.0702 23.6543 48.0922 23.6493C48.1222 23.6379 48.1557 23.6269 48.1927 23.6162C48.3111 23.513 48.416 23.3652 48.5074 23.1729C48.6058 22.9813 48.6705 22.8043 48.7012 22.6418C48.707 22.5848 48.6882 22.5217 48.6447 22.4526C48.6092 22.377 48.5861 22.3207 48.5754 22.2836C48.564 22.2537 48.5348 22.222 48.4878 22.1884C48.4415 22.1478 48.3878 22.11 48.3265 22.075C48.266 22.0329 48.2012 21.9976 48.1321 21.969C48.0701 21.9412 48.0216 21.9219 47.9867 21.9112C47.9098 21.889 47.8453 21.8861 47.7933 21.9025C47.742 21.9117 47.6803 21.9163 47.6083 21.9162C47.5079 21.9133 47.4152 21.904 47.3305 21.8882C47.2457 21.8725 47.168 21.8934 47.0974 21.9511C47.0631 22.0772 47.0035 22.2044 46.9186 22.3326C46.8415 22.4544 46.7784 22.5811 46.7291 22.7129ZM53.9824 22.9474C54.0436 22.9824 54.0824 23.0259 54.0988 23.0779C54.1158 23.1228 54.1254 23.1706 54.1275 23.2212C54.1368 23.2725 54.146 23.3238 54.1552 23.3751C54.1644 23.4264 54.1961 23.4692 54.2502 23.5035C54.263 23.5191 54.2862 23.5395 54.3197 23.5644C54.3531 23.5894 54.3898 23.6183 54.4297 23.6511C54.4703 23.6768 54.5073 23.7021 54.5408 23.7271C54.5821 23.7456 54.6138 23.7524 54.6359 23.7475C54.6794 23.7447 54.7218 23.7165 54.7632 23.6631C54.8045 23.6097 54.8395 23.5485 54.8681 23.4794C54.9045 23.4039 54.9302 23.3273 54.9452 23.2496C54.9602 23.172 54.9631 23.1075 54.9539 23.0562C54.9418 23.0333 54.9055 23.0009 54.845 22.9588C54.7851 22.9096 54.7381 22.8761 54.7039 22.8582C54.6078 22.8125 54.5195 22.7604 54.439 22.7019C54.3585 22.6434 54.2702 22.5914 54.174 22.5457C54.1327 22.5271 54.0886 22.5011 54.0415 22.4675C54.0024 22.4276 53.9614 22.4055 53.9187 22.4012C53.8909 22.3912 53.8581 22.3951 53.8203 22.4129C53.7833 22.4235 53.7469 22.427 53.7113 22.4235C53.6678 22.4263 53.614 22.4244 53.5499 22.418C53.4936 22.4051 53.433 22.399 53.3682 22.3997C53.3034 22.4003 53.2346 22.4042 53.1619 22.4113C53.0963 22.419 53.0368 22.4382 52.9833 22.4688C52.8828 22.5379 52.8061 22.6201 52.7533 22.7156C52.7084 22.8046 52.6477 22.9065 52.5714 23.0211C52.5543 23.0482 52.5261 23.0777 52.4869 23.1098C52.4477 23.1418 52.4255 23.1828 52.4205 23.2327C52.4176 23.2612 52.4258 23.2872 52.445 23.3107C52.4714 23.3349 52.4895 23.3692 52.4995 23.4134C52.5165 23.4583 52.5261 23.506 52.5282 23.5566C52.531 23.6001 52.5378 23.6403 52.5484 23.6774C52.5676 23.7009 52.5869 23.7245 52.6061 23.748C52.626 23.7644 52.6424 23.7805 52.6552 23.7961C52.6744 23.8197 52.6862 23.846 52.6904 23.8753C52.7018 23.9052 52.7175 23.9284 52.7374 23.9448C52.7709 23.9697 52.8275 24.015 52.9072 24.0807C52.9948 24.1399 53.0771 24.1806 53.1541 24.2027C53.2866 24.2449 53.403 24.3034 53.5034 24.3783C53.6117 24.4468 53.7171 24.5078 53.8197 24.5613C53.8945 24.6048 53.9507 24.6537 53.9885 24.7079C54.034 24.7557 54.0721 24.8063 54.1027 24.8598C54.134 24.9061 54.1653 24.9524 54.1967 24.9988C54.2351 25.0459 54.2889 25.0837 54.358 25.1122C54.3922 25.1301 54.4235 25.1404 54.452 25.1433C54.4805 25.1462 54.5119 25.1565 54.5461 25.1744C54.5802 25.1922 54.6134 25.2207 54.6454 25.26C54.6781 25.292 54.7141 25.3281 54.7533 25.368C54.7789 25.3994 54.8006 25.434 54.8184 25.4717C54.844 25.5031 54.8625 25.5338 54.8739 25.5637C54.891 25.6086 54.8995 25.667 54.8994 25.739C54.9001 25.8039 54.8982 25.8577 54.8939 25.9004C54.8838 26.0721 54.8666 26.2072 54.8423 26.3055C54.818 26.4038 54.7837 26.4939 54.7395 26.5758C54.6952 26.6577 54.6403 26.7386 54.5747 26.8183C54.5162 26.8988 54.448 27.0035 54.3703 27.1324C54.2733 27.1658 54.1721 27.206 54.0666 27.253C53.9618 27.2928 53.8709 27.3376 53.7939 27.3874C53.7554 27.4123 53.702 27.4429 53.6335 27.4792C53.5651 27.5155 53.5052 27.5383 53.4539 27.5475C53.3506 27.5731 53.2273 27.5822 53.084 27.575C52.9408 27.5678 52.8065 27.5794 52.6811 27.61C52.6076 27.6241 52.5218 27.6191 52.4235 27.5948C52.3323 27.5712 52.2471 27.559 52.168 27.5582C52.074 27.5632 51.9941 27.5695 51.9286 27.5773C51.8623 27.5922 51.7871 27.5882 51.7031 27.5654C51.6047 27.541 51.4982 27.4907 51.3836 27.4144C51.2682 27.3452 51.1671 27.2774 51.0802 27.2111C51.046 27.1932 51.0193 27.1725 51.0001 27.149C50.9816 27.1183 50.9556 27.0905 50.9221 27.0656C50.8751 27.032 50.827 27.0092 50.7778 26.997C50.7294 26.9778 50.6856 26.9482 50.6464 26.9082C50.6073 26.8683 50.5713 26.8323 50.5386 26.8002C50.5065 26.761 50.4745 26.7217 50.4425 26.6825C50.3627 26.6169 50.2723 26.5502 50.1711 26.4824C50.0778 26.4082 50.013 26.3369 49.9768 26.2685C49.9518 26.23 49.9387 26.1819 49.9373 26.1242C49.9438 26.06 49.9356 25.998 49.9129 25.9382C49.9037 25.8868 49.883 25.8416 49.851 25.8024C49.819 25.7631 49.8012 25.7254 49.7976 25.689C49.7863 25.5871 49.8081 25.4777 49.8631 25.3609C49.9181 25.2441 49.9677 25.1447 50.0119 25.0628C50.1495 25.0551 50.2585 25.0805 50.3389 25.139C50.4273 25.1911 50.4995 25.2595 50.5558 25.3444C50.612 25.4292 50.66 25.524 50.6998 25.6288C50.7404 25.7265 50.782 25.8134 50.8247 25.8897C50.8724 25.9881 50.9542 26.0683 51.0703 26.1304C51.1864 26.1925 51.299 26.2542 51.408 26.3156C51.4486 26.3413 51.4856 26.3666 51.5191 26.3916C51.5604 26.4101 51.5981 26.4283 51.6323 26.4462C51.7214 26.4911 51.7958 26.5382 51.8556 26.5874C51.9233 26.6303 51.9959 26.6592 52.0736 26.6742C52.1448 26.6814 52.2129 26.6846 52.2777 26.684C52.3504 26.6769 52.4303 26.6706 52.5172 26.6649C52.6056 26.645 52.6921 26.643 52.7769 26.6587C52.8624 26.6673 52.9462 26.6578 53.0281 26.6301C53.1244 26.6038 53.1821 26.5664 53.2014 26.518C53.2207 26.4695 53.2596 26.4051 53.3181 26.3246C53.3032 26.1863 53.2808 26.0869 53.251 26.0263C53.2211 25.9657 53.1638 25.8916 53.079 25.8038C53.0463 25.7718 53.0057 25.7461 52.9572 25.7268C52.9167 25.7011 52.8796 25.6758 52.8461 25.6508C52.7058 25.5431 52.5513 25.434 52.3825 25.3234C52.2137 25.2128 52.0242 25.1289 51.8141 25.0717C51.683 25.0153 51.5462 24.944 51.4038 24.8576C51.2692 24.7649 51.1763 24.6511 51.1251 24.5164C51.1066 24.4858 51.0952 24.4558 51.0909 24.4266C51.0938 24.3981 51.0899 24.3653 51.0793 24.3283C51.0366 24.18 50.9683 24.0364 50.8744 23.8973C50.7875 23.759 50.7346 23.6061 50.7155 23.4387C50.7062 23.3873 50.7077 23.3371 50.7199 23.288C50.7327 23.2317 50.7452 23.1789 50.7574 23.1298C50.7767 23.0813 50.7928 23.029 50.8056 22.9727C50.8185 22.9164 50.821 22.8555 50.8132 22.7899C50.8446 22.7643 50.8653 22.7376 50.8753 22.7098C50.8853 22.682 50.8989 22.6546 50.916 22.6275C50.9488 22.5877 50.9709 22.5467 50.9824 22.5047C51.0016 22.4562 51.0384 22.4131 51.0926 22.3754C51.1467 22.3377 51.1902 22.2989 51.2231 22.259C51.2637 22.2127 51.3033 22.1771 51.3418 22.1522C51.3646 22.1401 51.3903 22.1355 51.4188 22.1384C51.448 22.1341 51.474 22.126 51.4968 22.1139C51.5346 22.0961 51.5692 22.0744 51.6005 22.0487C51.6326 22.016 51.6679 21.9872 51.7064 21.9622C51.8597 21.8697 52.029 21.7968 52.2143 21.7435C52.4004 21.6831 52.5882 21.6409 52.7777 21.6168C52.8098 21.584 52.859 21.5602 52.9253 21.5453C52.9923 21.5232 53.0618 21.5122 53.1337 21.5123C53.2136 21.506 53.2895 21.5028 53.3614 21.5029C53.4334 21.5029 53.4947 21.5019 53.5453 21.4998C53.7633 21.5506 53.9343 21.6038 54.0582 21.6595C54.1893 21.7159 54.3093 21.7748 54.4183 21.8361C54.5351 21.8911 54.6591 21.9468 54.7901 22.0032C54.9212 22.0596 55.0922 22.1128 55.3031 22.1628C55.3821 22.2356 55.4633 22.3229 55.5466 22.4249C55.6377 22.5205 55.7135 22.6253 55.774 22.7393C55.8345 22.8534 55.8729 22.9724 55.8892 23.0964C55.9133 23.214 55.8943 23.3309 55.8322 23.447C55.7894 23.5147 55.7527 23.5937 55.7219 23.6842C55.6919 23.7676 55.652 23.8427 55.602 23.9096C55.5607 23.9631 55.5147 24.0268 55.464 24.1009C55.4205 24.1757 55.3713 24.2355 55.3164 24.2803C55.2066 24.37 55.0711 24.4283 54.91 24.4553C54.749 24.4822 54.5943 24.4811 54.4462 24.4517C54.4106 24.3762 54.349 24.3088 54.2614 24.2496C54.1809 24.1911 54.0969 24.1322 54.0093 24.073C53.9295 24.0074 53.8537 23.9385 53.7818 23.8665C53.7177 23.7881 53.68 23.6979 53.6687 23.596C53.6595 23.4727 53.676 23.3448 53.7182 23.2123C53.7674 23.0805 53.8555 22.9922 53.9824 22.9474Z" fill="white"/>
<path d="M0.950358 33.2623C0.583379 33.4944 0.235715 33.92 0.119827 34.3069C-0.208523 35.2934 0.158456 37.344 0.969673 39.0076C2.20581 41.5224 2.66937 41.8513 15.8613 49.357C22.3317 53.0518 28.1068 56.2436 28.6862 56.4564C32.781 58.0233 37.4358 58.004 41.376 56.4177C42.2452 56.0695 48.1941 52.8003 54.6065 49.1248C67.4701 41.7739 67.8564 41.5031 69.0153 39.0463C69.7106 37.6148 70.1162 35.6997 69.9617 34.7131C69.7299 33.2623 68.262 32.5078 67.0066 33.1849C66.3306 33.5524 66.0602 34.0747 65.867 35.4095C65.6739 36.6282 65.1717 37.7309 64.457 38.4466C63.8583 39.0269 42.9598 51.1367 40.5648 52.2587C38.7106 53.1485 36.9143 53.458 34.3261 53.3613C32.5685 53.2839 31.7573 53.1485 30.637 52.7616C29.0339 52.2006 6.86065 39.6073 5.7404 38.6207C4.9485 37.9243 4.1566 36.3574 4.1566 35.4482C4.1566 34.481 3.67373 33.5331 3.01703 33.2042C2.24444 32.798 1.68432 32.8173 0.950358 33.2623Z" fill="#1D2445"/>
<path d="M0.950358 45.6426C0.583379 45.8748 0.235715 46.3003 0.119827 46.6872C-0.208523 47.6738 0.158456 49.7243 0.969673 51.388C2.20581 53.9028 2.66937 54.2316 15.8613 61.7373C22.3317 65.4322 28.1068 68.624 28.6862 68.8368C32.781 70.4037 37.4358 70.3844 41.376 68.7981C42.2452 68.4499 48.1941 65.1807 54.6065 61.5052C67.4701 54.1543 67.8564 53.8834 69.0153 51.4267C69.7106 49.9952 70.1162 48.0801 69.9617 47.0935C69.7299 45.6426 68.262 44.8882 67.0066 45.5653C66.3306 45.9328 66.0602 46.4551 65.867 47.7899C65.6739 49.0086 65.1717 50.1112 64.457 50.827C63.8583 51.4073 42.9598 63.517 40.5648 64.639C38.7106 65.5289 36.9143 65.8384 34.3261 65.7417C32.5685 65.6643 31.7573 65.5289 30.637 65.142C29.0339 64.581 6.86065 51.9877 5.7404 51.0011C4.9485 50.3047 4.1566 48.7378 4.1566 47.8286C4.1566 46.8613 3.67373 45.9135 3.01703 45.5846C2.24444 45.1784 1.68432 45.1977 0.950358 45.6426Z" fill="#1D2445"/>
</svg>
