<svg width="94" height="94" viewBox="0 0 94 94" fill="none" xmlns="http://www.w3.org/2000/svg">
<path d="M60.5955 17.94L65.879 20.4124C74.6337 24.5091 75.6413 40.8401 68.1315 56.8886C60.7552 72.6519 47.9063 82.2799 39.1568 78.7363L38.6831 78.5307L33.3996 76.0584C42.1543 80.1551 55.3382 70.4649 62.848 54.4163C70.3578 38.3677 69.3502 22.0367 60.5955 17.94ZM25.8636 37.1098C33.3734 21.0612 46.5573 11.371 55.312 15.4677C64.0668 19.5644 65.0743 35.8953 57.5645 51.9439C50.0547 67.9925 36.8708 77.6827 28.1161 73.586C19.3613 69.4893 18.3538 53.1584 25.8636 37.1098Z" fill="#1D2445"/>
</svg>
