<svg width="50" height="50" viewBox="0 0 50 50" fill="none" xmlns="http://www.w3.org/2000/svg">
<path d="M18.7516 26.2593C18.7078 27.0752 18.9878 27.8754 19.5309 28.4858C20.074 29.0963 20.8361 29.4677 21.6516 29.5193C22.4652 29.4652 23.2248 29.0927 23.7658 28.4825C24.3067 27.8723 24.5854 27.0735 24.5416 26.2593C24.5855 25.444 24.3071 24.6441 23.7664 24.0323C23.2257 23.4205 22.4661 23.0458 21.6516 22.9893C20.8352 23.0433 20.0731 23.4169 19.5303 24.0289C18.9875 24.641 18.7077 25.4423 18.7516 26.2593V26.2593ZM22.5416 26.2593C22.5416 26.9393 22.1316 27.5193 21.6516 27.5193C21.1716 27.5193 20.7516 26.9393 20.7516 26.2593C20.7516 25.5793 21.1616 24.9893 21.6516 24.9893C22.1416 24.9893 22.5416 25.5693 22.5416 26.2593Z" fill="white"/>
<path d="M28.2119 22.9893C27.3974 23.0458 26.6378 23.4205 26.0971 24.0323C25.5564 24.6441 25.2779 25.444 25.3219 26.2593C25.278 27.0735 25.5567 27.8723 26.0977 28.4825C26.6386 29.0927 27.3982 29.4652 28.2119 29.5193C29.0273 29.4677 29.7895 29.0963 30.3325 28.4858C30.8756 27.8754 31.1557 27.0752 31.1119 26.2593C31.1558 25.4423 30.876 24.641 30.3332 24.0289C29.7904 23.4169 29.0282 23.0433 28.2119 22.9893V22.9893ZM28.2119 27.5193C27.7319 27.5193 27.3219 26.9393 27.3219 26.2593C27.3219 25.5793 27.7319 24.9893 28.2119 24.9893C28.6919 24.9893 29.1119 25.5693 29.1119 26.2593C29.1119 26.9493 28.7019 27.5193 28.2119 27.5193Z" fill="white"/>
<path d="M35.562 19.3793L35.492 19.2893C35.492 19.2893 35.492 19.2193 35.492 19.1893C33.7562 17.0811 31.3607 15.6191 28.692 15.0393C28.5627 15.0019 28.4272 14.9911 28.2936 15.0073C28.16 15.0236 28.0311 15.0666 27.9145 15.1339C27.798 15.2012 27.6962 15.2913 27.6153 15.3989C27.5344 15.5064 27.476 15.6292 27.4437 15.7598C27.4114 15.8905 27.4058 16.0263 27.4272 16.1592C27.4486 16.292 27.4966 16.4192 27.5684 16.5331C27.6401 16.6469 27.7341 16.7451 27.8447 16.8218C27.9553 16.8985 28.0802 16.9521 28.212 16.9793C30.4188 17.4524 32.4061 18.6448 33.862 20.3693C35.2108 23.4649 35.9152 26.8027 35.932 30.1793C34.5393 31.4783 32.8047 32.3526 30.932 32.6993V32.2693C30.932 32.2693 30.932 32.2193 30.932 32.1893C32.1648 31.7111 33.3205 31.054 34.362 30.2393C34.5702 30.0735 34.704 29.8319 34.7341 29.5674C34.7641 29.303 34.6878 29.0375 34.522 28.8293C34.3563 28.6211 34.1146 28.4873 33.8502 28.4573C33.5857 28.4273 33.3202 28.5035 33.112 28.6693C30.7647 30.4494 27.8763 31.3675 24.932 31.2693C22.0115 31.3513 19.1505 30.4341 16.822 28.6693C16.7189 28.5872 16.6007 28.5263 16.4741 28.4899C16.3474 28.4535 16.2148 28.4424 16.0839 28.4573C15.8195 28.4873 15.5778 28.6211 15.412 28.8293C15.2463 29.0375 15.17 29.303 15.2 29.5674C15.23 29.8319 15.3638 30.0735 15.572 30.2393C16.6064 31.0538 17.7555 31.7109 18.982 32.1893V32.6993C17.1094 32.3526 15.3747 31.4783 13.982 30.1793C14.0052 26.8013 14.7164 23.4634 16.072 20.3693C17.528 18.6448 19.5153 17.4524 21.722 16.9793C21.9704 16.9075 22.1813 16.7424 22.3105 16.5185C22.4398 16.2946 22.4773 16.0294 22.4152 15.7784C22.3531 15.5275 22.1962 15.3103 21.9775 15.1725C21.7588 15.0347 21.4952 14.987 21.242 15.0393C18.5734 15.6191 16.1779 17.0811 14.442 19.1893C14.442 19.1893 14.442 19.2593 14.442 19.2893L14.372 19.3793C12.432 23.3793 12.212 27.0293 12.002 30.5193C11.993 30.6609 12.0142 30.8028 12.0642 30.9355C12.1142 31.0683 12.1918 31.1889 12.292 31.2893C14.3245 33.3607 17.0387 34.6255 19.932 34.8493V34.8493C20.1944 34.8482 20.4458 34.744 20.632 34.5593C20.7265 34.4667 20.8017 34.3562 20.8532 34.2344C20.9047 34.1125 20.9315 33.9816 20.932 33.8493V32.8493C23.5632 33.4648 26.3009 33.4648 28.932 32.8493V33.8493C28.9326 33.9816 28.9594 34.1125 29.0109 34.2344C29.0624 34.3562 29.1375 34.4667 29.232 34.5593C29.4183 34.744 29.6697 34.8482 29.932 34.8493C32.8538 34.6627 35.6066 33.4143 37.672 31.3393C37.7722 31.2389 37.8499 31.1183 37.8999 30.9855C37.9499 30.8528 37.9711 30.7109 37.962 30.5693C37.722 27.0293 37.502 23.4193 35.562 19.3793Z" fill="white"/>
<path d="M32.4216 20.5693C32.4822 20.4524 32.5192 20.3248 32.5305 20.1936C32.5417 20.0625 32.5269 19.9304 32.4869 19.805C32.447 19.6795 32.3827 19.5632 32.2977 19.4627C32.2127 19.3622 32.1086 19.2795 31.9916 19.2193C29.7894 18.1696 27.3703 17.6556 24.9316 17.7193C22.4929 17.6556 20.0737 18.1696 17.8716 19.2193C17.7545 19.2795 17.6505 19.3622 17.5655 19.4627C17.4805 19.5632 17.4162 19.6795 17.3763 19.805C17.3363 19.9304 17.3215 20.0625 17.3327 20.1936C17.3439 20.3248 17.3809 20.4524 17.4416 20.5693C17.565 20.8039 17.7765 20.98 18.0296 21.0587C18.2828 21.1375 18.5569 21.1125 18.7916 20.9893C20.7108 20.0917 22.8138 19.6567 24.9316 19.7193C27.0494 19.6567 29.1524 20.0917 31.0716 20.9893C31.2131 21.0657 31.3708 21.1068 31.5316 21.1093C31.7152 21.1096 31.8954 21.0595 32.0524 20.9642C32.2094 20.8689 32.3371 20.7323 32.4216 20.5693Z" fill="white"/>
</svg>
