<svg xmlns="http://www.w3.org/2000/svg" width="975" height="178" viewBox="0 0 975 178">
  <g id="imrzteam" transform="translate(-186 -316.287)">
    <text id="TEAM" transform="translate(186 316.287)" fill="#fff" font-size="60" font-family="Poppins-Bold, Poppins" font-weight="700"><tspan x="0" y="63">TEAM</tspan></text>
    <g id="group" transform="translate(179 327.597)">
      <g id="Group_1723" data-name="Group 1723">
        <path id="Path_1908" data-name="Path 1908" d="M66.348,36.675a8.114,8.114,0,0,1,7.994,5.178V36.919h1.563V55.789H74.342V50.818a8.15,8.15,0,0,1-7.994,5.249c-5.281,0-9.1-3.789-9.1-9.73,0-5.978,3.823-9.662,9.1-9.662m.21,1.356c-4.552,0-7.714,3.094-7.714,8.306s3.162,8.341,7.714,8.341c4.413,0,7.785-3.233,7.785-8.341,0-5.039-3.372-8.306-7.785-8.306" transform="translate(65.147 41.739)" fill="#fff"/>
        <path id="Path_1909" data-name="Path 1909" d="M78.193,40.189c5.281,0,9.1,3.684,9.1,9.662,0,5.942-3.823,9.73-9.1,9.73A8.128,8.128,0,0,1,70.2,54.369V59.3H68.636V33.587H70.2V45.4a8.18,8.18,0,0,1,7.994-5.213m-.244,1.356c-4.379,0-7.75,3.267-7.75,8.306,0,5.108,3.372,8.341,7.75,8.341,4.588,0,7.75-3.128,7.75-8.341s-3.162-8.306-7.75-8.306" transform="translate(78.112 38.225)" fill="#fff"/>
        <path id="Path_1910" data-name="Path 1910" d="M86.456,56.067c-4.137,0-7.056-1.877-7.4-5.352h1.6c.242,2.4,2.224,4,5.8,4,2.953,0,4.689-1.738,4.689-3.789,0-5.213-11.569-2.189-11.569-9.348,0-2.641,2.57-4.9,6.252-4.9,3.93,0,6.534,2.05,6.746,5.561H91.008C90.867,39.874,89.133,38,85.793,38c-2.743,0-4.657,1.633-4.657,3.579,0,5.839,11.471,2.745,11.539,9.348,0,2.955-2.608,5.144-6.22,5.144" transform="translate(89.967 41.739)" fill="#fff"/>
        <path id="Path_1911" data-name="Path 1911" d="M21.722,49.93l3.618,8.67h9.754V34.206h-6.81L23.74,45.091,21.722,49.93" transform="translate(24.721 38.929)" fill="#fff"/>
        <rect id="Rectangle_687" data-name="Rectangle 687" width="5.942" height="24.391" transform="translate(21.038 73.137)" fill="#fff"/>
        <path id="Path_1912" data-name="Path 1912" d="M58.1,34.206H40.862v4.518H51.253L40.862,54.082V58.6H58.1V54.082H47.708L58.1,38.724Z" transform="translate(46.504 38.93)" fill="#fff"/>
        <path id="Path_1913" data-name="Path 1913" d="M44.9,45.811a7.593,7.593,0,0,0,1.285-4.135A6.941,6.941,0,0,0,43.826,36.4a9.354,9.354,0,0,0-6.6-2.189H32.886l8.548,14.216a6.646,6.646,0,0,0,3.47-2.611" transform="translate(37.427 38.929)" fill="#fff"/>
        <path id="Path_1914" data-name="Path 1914" d="M26.386,49.668l-3.179-7.616L20.03,49.668Z" transform="translate(22.795 47.859)" fill="#fff"/>
        <path id="Path_1915" data-name="Path 1915" d="M28.428,49.93,26.41,45.091,21.866,34.206h-6.81V58.6H24.81l3.618-8.67" transform="translate(17.136 38.929)" fill="#fff"/>
        <path id="Path_1916" data-name="Path 1916" d="M34.82,34.206H30.413V58.6H49.489Z" transform="translate(34.612 38.93)" fill="#fff"/>
      </g>
      <g id="Group_1724" data-name="Group 1724">
        <path id="Path_1933" data-name="Path 1933" d="M51.069,34.2V58.6H61.7V57.28H52.634V34.2Z" transform="translate(58.119 38.927)" fill="#fff"/>
      </g>
    </g>
  </g>
</svg>
