<svg xmlns="http://www.w3.org/2000/svg" xmlns:xlink="http://www.w3.org/1999/xlink" width="442.323" height="97.806" viewBox="0 0 442.323 97.806">
  <defs>
    <clipPath id="clip-path">
      <rect id="Rectangle_688" data-name="Rectangle 688" width="442.323" height="97.806" fill="none"/>
    </clipPath>
  </defs>
  <g id="imrzventures" transform="translate(0 0)">
    <path id="Path_1907" data-name="Path 1907" d="M51.069,34.2V58.6H61.7V57.28H52.634V34.2Z" transform="translate(58.12 38.927)" fill="#fff"/>
    <g id="Group_1711" data-name="Group 1711" transform="translate(0 0)">
      <g id="Group_1710" data-name="Group 1710" clip-path="url(#clip-path)">
        <path id="Path_1908" data-name="Path 1908" d="M66.348,36.675a8.114,8.114,0,0,1,7.994,5.178V36.919h1.563V55.789H74.342V50.818a8.15,8.15,0,0,1-7.994,5.249c-5.281,0-9.1-3.789-9.1-9.73,0-5.978,3.823-9.662,9.1-9.662m.21,1.356c-4.552,0-7.714,3.094-7.714,8.306s3.162,8.341,7.714,8.341c4.413,0,7.785-3.233,7.785-8.341,0-5.039-3.372-8.306-7.785-8.306" transform="translate(65.147 41.739)" fill="#fff"/>
        <path id="Path_1909" data-name="Path 1909" d="M78.193,40.189c5.281,0,9.1,3.684,9.1,9.662,0,5.942-3.823,9.73-9.1,9.73A8.128,8.128,0,0,1,70.2,54.369V59.3H68.636V33.587H70.2V45.4a8.18,8.18,0,0,1,7.994-5.213m-.244,1.356c-4.379,0-7.75,3.267-7.75,8.306,0,5.108,3.372,8.341,7.75,8.341,4.588,0,7.75-3.128,7.75-8.341s-3.162-8.306-7.75-8.306" transform="translate(78.112 38.225)" fill="#fff"/>
        <path id="Path_1910" data-name="Path 1910" d="M86.456,56.067c-4.137,0-7.056-1.877-7.4-5.352h1.6c.242,2.4,2.224,4,5.8,4,2.953,0,4.689-1.738,4.689-3.789,0-5.213-11.569-2.189-11.569-9.348,0-2.641,2.57-4.9,6.252-4.9,3.93,0,6.534,2.05,6.746,5.561H91.008C90.867,39.874,89.133,38,85.793,38c-2.743,0-4.657,1.633-4.657,3.579,0,5.839,11.471,2.745,11.539,9.348,0,2.955-2.608,5.144-6.22,5.144" transform="translate(89.966 41.739)" fill="#fff"/>
        <path id="Path_1911" data-name="Path 1911" d="M21.722,49.93l3.618,8.67h9.754V34.206h-6.81L23.74,45.091,21.722,49.93" transform="translate(24.721 38.929)" fill="#fff"/>
        <rect id="Rectangle_687" data-name="Rectangle 687" width="5.942" height="24.391" transform="translate(21.039 73.137)" fill="#fff"/>
        <path id="Path_1912" data-name="Path 1912" d="M58.1,34.206H40.862v4.518H51.253L40.862,54.082V58.6H58.1V54.082H47.708L58.1,38.724Z" transform="translate(46.504 38.93)" fill="#fff"/>
        <path id="Path_1913" data-name="Path 1913" d="M44.9,45.811a7.593,7.593,0,0,0,1.285-4.135A6.941,6.941,0,0,0,43.826,36.4a9.354,9.354,0,0,0-6.6-2.189H32.886l8.548,14.216a6.646,6.646,0,0,0,3.47-2.611" transform="translate(37.426 38.929)" fill="#fff"/>
        <path id="Path_1914" data-name="Path 1914" d="M26.386,49.668l-3.179-7.616L20.03,49.668Z" transform="translate(22.795 47.859)" fill="#fff"/>
        <path id="Path_1915" data-name="Path 1915" d="M28.428,49.93,26.41,45.091,21.866,34.206h-6.81V58.6H24.81l3.618-8.67" transform="translate(17.135 38.929)" fill="#fff"/>
        <path id="Path_1916" data-name="Path 1916" d="M34.82,34.206H30.413V58.6H49.489Z" transform="translate(34.612 38.93)" fill="#fff"/>
        <path id="Path_1917" data-name="Path 1917" d="M67.287.316V11.3H45.825V24.057H64.751V35.043H45.825V48.816H67.287V59.8H31.378V.316Z" transform="translate(35.711 0.361)" fill="#fff"/>
        <path id="Path_1918" data-name="Path 1918" d="M92.6.316h14.449V59.8H92.6L68.431,22.368V59.8H53.982V.316H68.431L92.6,37.748Z" transform="translate(61.436 0.361)" fill="#fff"/>
        <path id="Path_1919" data-name="Path 1919" d="M82.831,11.378V.4h46.811V11.378H113.418V59.709H98.969V11.378Z" transform="translate(94.267 0.45)" fill="#fff"/>
        <path id="Path_1920" data-name="Path 1920" d="M108.636,35.8V.4h14.449V35.8q0,5.324,2.619,8.2t7.688,2.874q5.07,0,7.774-2.874t2.7-8.2V.4h14.449V35.8a24.494,24.494,0,0,1-3.675,13.562,22.073,22.073,0,0,1-9.294,8.323,28.526,28.526,0,0,1-12.21,2.619,24.989,24.989,0,0,1-17.4-6.423q-7.1-6.417-7.1-18.082" transform="translate(123.635 0.45)" fill="#fff"/>
        <path id="Path_1921" data-name="Path 1921" d="M199.951.316V11.3H178.489V24.057h18.926V35.043H178.489V48.816h21.462V59.8H164.042V.316Z" transform="translate(186.691 0.361)" fill="#fff"/>
        <path id="Path_1922" data-name="Path 1922" d="M207.432,11.407A6.725,6.725,0,0,0,203,12.843a5.075,5.075,0,0,0-1.732,4.139,5.967,5.967,0,0,0,1.606,4.353,10.472,10.472,0,0,0,4.182,2.534q2.575.885,5.745,1.689a65.634,65.634,0,0,1,6.3,1.944,27.6,27.6,0,0,1,5.7,2.833,12.426,12.426,0,0,1,4.182,4.772,15.845,15.845,0,0,1,1.606,7.393,16.554,16.554,0,0,1-6.126,12.884q-6.129,5.369-16.138,5.367t-16.138-4.817q-6.129-4.814-6.128-13.686h15.379q.59,7.1,7.267,7.1a6.931,6.931,0,0,0,4.9-1.646,5.461,5.461,0,0,0,1.772-4.182,5.609,5.609,0,0,0-1.6-4.141,11.191,11.191,0,0,0-4.184-2.534q-2.575-.933-5.745-1.734a58.051,58.051,0,0,1-6.294-1.986,30.637,30.637,0,0,1-5.7-2.829,12.089,12.089,0,0,1-4.182-4.734,15.609,15.609,0,0,1-1.606-7.308,16.2,16.2,0,0,1,6.168-13.265Q198.389,0,207.981,0t15.5,4.351q5.914,4.355,6.168,13.731H213.938a7.936,7.936,0,0,0-2.07-4.941,6.013,6.013,0,0,0-4.436-1.734" transform="translate(211.741 0)" fill="#fff"/>
        <path id="Path_1923" data-name="Path 1923" d="M14.872,24.01,7.192.4Z" transform="translate(8.185 0.45)" fill="#fff"/>
        <path id="Path_1924" data-name="Path 1924" d="M23.057,24.01h0L15.377.4H0L21.039,59.711h2.313l5.657-17.4Z" transform="translate(0 0.45)" fill="#fff"/>
        <path id="Path_1925" data-name="Path 1925" d="M28.2.4,14.569,42.312Z" transform="translate(16.58 0.45)" fill="#fff"/>
        <path id="Path_1926" data-name="Path 1926" d="M28.2.4,14.569,42.312l5.657,17.4H22.54L43.578.4Z" transform="translate(16.58 0.451)" fill="#fff"/>
        <path id="Path_1927" data-name="Path 1927" d="M11.922,35.649H21.1L16.51,21.538Z" transform="translate(13.568 24.512)" fill="#fff"/>
        <path id="Path_1928" data-name="Path 1928" d="M16.737,29.744h0l-5.952-18.3Z" transform="translate(12.273 13.019)" fill="#fff"/>
        <path id="Path_1929" data-name="Path 1929" d="M14.068,21.538Z" transform="translate(16.01 24.512)" fill="#fff"/>
        <path id="Path_1930" data-name="Path 1930" d="M10.784,11.44h0l5.952,18.3Z" transform="translate(12.273 13.02)" fill="#fff"/>
        <path id="Path_1931" data-name="Path 1931" d="M14.068,21.538Z" transform="translate(16.01 24.512)" fill="#fff"/>
        <path id="Path_1932" data-name="Path 1932" d="M152.084,36.633V59.7H137.635V.386H161.04q10.308,0,16.055,5.324a16.884,16.884,0,0,1,5.745,12.841,18.5,18.5,0,0,1-3.126,10.057q-3.127,4.9-10.222,6.927L184.022,59.7h-16.9L153.775,36.633Zm0-25.263v14.28h8.956a6.617,6.617,0,0,0,7.1-7.056,7.2,7.2,0,0,0-1.943-5.2,6.81,6.81,0,0,0-5.155-2.029Z" transform="translate(156.638 0.44)" fill="#fff"/>
      </g>
    </g>
  </g>
</svg>
