<svg xmlns="http://www.w3.org/2000/svg" xmlns:xlink="http://www.w3.org/1999/xlink" width="363" height="97.806" viewBox="0 0 363 97.806">
  <defs>
    <clipPath id="clip-path">
      <rect id="Rectangle_685" data-name="Rectangle 685" width="363" height="97.806" fill="none"/>
    </clipPath>
  </defs>
  <g id="imrzagency" transform="translate(0 0)">
    <path id="Path_1886" data-name="Path 1886" d="M41.229,33.755V58.394H51.967V57.06H42.81v-23.3Z" transform="translate(47.795 39.131)" fill="#fff"/>
    <g id="Group_1700" data-name="Group 1700" transform="translate(0 0)">
      <g id="Group_1699" data-name="Group 1699" clip-path="url(#clip-path)">
        <path id="Path_1887" data-name="Path 1887" d="M56.6,36.226a8.194,8.194,0,0,1,8.073,5.23V36.472H66.25V55.53H64.672V50.51a8.231,8.231,0,0,1-8.073,5.3c-5.333,0-9.194-3.826-9.194-9.827,0-6.037,3.861-9.758,9.194-9.758m.212,1.369c-4.6,0-7.791,3.124-7.791,8.389s3.194,8.423,7.791,8.423c4.457,0,7.862-3.265,7.862-8.423,0-5.089-3.405-8.389-7.862-8.389" transform="translate(54.954 41.996)" fill="#fff"/>
        <path id="Path_1888" data-name="Path 1888" d="M68.448,39.806c5.333,0,9.194,3.72,9.194,9.758,0,6-3.861,9.827-9.194,9.827a8.208,8.208,0,0,1-8.073-5.264V59.11H58.8V33.138h1.578V45.07a8.261,8.261,0,0,1,8.073-5.264M68.2,41.175c-4.422,0-7.827,3.3-7.827,8.389,0,5.158,3.405,8.423,7.827,8.423,4.634,0,7.827-3.159,7.827-8.423s-3.194-8.389-7.827-8.389" transform="translate(68.16 38.416)" fill="#fff"/>
        <path id="Path_1889" data-name="Path 1889" d="M76.688,55.811c-4.176,0-7.126-1.9-7.475-5.4h1.615c.244,2.421,2.246,4.036,5.86,4.036,2.984,0,4.737-1.755,4.737-3.826,0-5.264-11.686-2.211-11.686-9.44,0-2.667,2.6-4.949,6.316-4.949,3.967,0,6.6,2.071,6.81,5.616H81.285c-.14-2.386-1.894-4.282-5.264-4.282-2.772,0-4.7,1.65-4.7,3.615,0,5.9,11.582,2.772,11.651,9.44,0,2.984-2.632,5.2-6.281,5.2" transform="translate(80.236 41.996)" fill="#fff"/>
        <path id="Path_1890" data-name="Path 1890" d="M11.882,49.636l3.653,8.756h9.851V33.757H18.508L13.92,44.75l-2.038,4.886" transform="translate(13.774 39.134)" fill="#fff"/>
        <rect id="Rectangle_684" data-name="Rectangle 684" width="6.001" height="24.633" transform="translate(0 72.892)" fill="#fff"/>
        <path id="Path_1891" data-name="Path 1891" d="M48.428,33.757H31.023V38.32H41.517L31.023,53.83v4.56H48.428V53.83H37.937L48.428,38.32Z" transform="translate(35.963 39.134)" fill="#fff"/>
        <path id="Path_1892" data-name="Path 1892" d="M35.183,45.477a7.668,7.668,0,0,0,1.3-4.176,7.01,7.01,0,0,0-2.386-5.333,9.446,9.446,0,0,0-6.668-2.211H23.046l8.633,14.357a6.712,6.712,0,0,0,3.5-2.636" transform="translate(26.716 39.134)" fill="#fff"/>
        <path id="Path_1893" data-name="Path 1893" d="M16.609,49.295,13.4,41.6,10.19,49.295Z" transform="translate(11.813 48.23)" fill="#fff"/>
        <path id="Path_1894" data-name="Path 1894" d="M18.721,49.636,16.682,44.75,12.094,33.757H5.217V58.392h9.851l3.653-8.756" transform="translate(6.048 39.134)" fill="#fff"/>
        <path id="Path_1895" data-name="Path 1895" d="M25.024,33.757h-4.45V58.39H39.838Z" transform="translate(23.85 39.134)" fill="#fff"/>
        <path id="Path_1896" data-name="Path 1896" d="M38.081,52.606q-8.917-8.661-8.916-21.973T38.081,8.659A30.125,30.125,0,0,1,59.883,0,30.765,30.765,0,0,1,77.632,5.29,27.582,27.582,0,0,1,88.469,19.967H71.061A11.46,11.46,0,0,0,60.14,13.4q-7.511,0-11.818,4.694t-4.31,12.543q0,7.851,4.31,12.543t11.561,4.694a13.266,13.266,0,0,0,8.49-2.6,12.555,12.555,0,0,0,4.4-6.955h-16.9V27.22h32.6V38.314q-1.623,8.191-8.959,15.272a26.953,26.953,0,0,1-8.663,5.547,28.369,28.369,0,0,1-10.965,2.136,30.1,30.1,0,0,1-21.8-8.663" transform="translate(33.81 0.001)" fill="#fff"/>
        <path id="Path_1897" data-name="Path 1897" d="M97.243.316V11.409H75.568V24.293H94.682V35.387H75.568V49.3H97.243V60.389H60.978V.316Z" transform="translate(70.689 0.367)" fill="#fff"/>
        <path id="Path_1898" data-name="Path 1898" d="M122.578.316h14.592V60.389H122.578l-24.4-37.8v37.8H83.582V.316H98.174l24.4,37.8Z" transform="translate(96.894 0.367)" fill="#fff"/>
        <path id="Path_1899" data-name="Path 1899" d="M121.624,52.606q-8.917-8.661-8.916-21.973t8.916-21.975A30.125,30.125,0,0,1,143.426,0a30.765,30.765,0,0,1,17.749,5.29,27.582,27.582,0,0,1,10.837,14.677H154.6A11.46,11.46,0,0,0,143.683,13.4q-7.511,0-11.818,4.694t-4.31,12.543q0,7.851,4.31,12.543t11.818,4.694A11.46,11.46,0,0,0,154.6,41.3h17.408a27.587,27.587,0,0,1-10.837,14.679,30.781,30.781,0,0,1-17.749,5.29,30.1,30.1,0,0,1-21.8-8.663" transform="translate(130.658 0.001)" fill="#fff"/>
        <path id="Path_1900" data-name="Path 1900" d="M177.477,60.3H162.884V41.011L142.149.4H158.7l11.52,27.049L181.659.4h16.553L177.477,41.011Z" transform="translate(164.788 0.459)" fill="#fff"/>
        <path id="Path_1901" data-name="Path 1901" d="M28.534,21.145,21.636.316h-.814L0,60.389H15.531l3.336-10.069,3.675-11.092Z" transform="translate(0 0.367)" fill="#fff"/>
        <path id="Path_1902" data-name="Path 1902" d="M22.092.316h-.976l-6.9,20.828L20.2,39.228l3.675,11.092,3.334,10.069H42.827Z" transform="translate(16.479 0.367)" fill="#fff"/>
        <path id="Path_1903" data-name="Path 1903" d="M22.659.316H11.021l5.817,17.568Z" transform="translate(12.776 0.367)" fill="#fff"/>
        <path id="Path_1904" data-name="Path 1904" d="M10.413,18.337,6.738,29.431H30.386L26.711,18.337Z" transform="translate(7.811 21.258)" fill="#fff"/>
      </g>
    </g>
  </g>
</svg>
