<svg xmlns="http://www.w3.org/2000/svg" width="601" height="171.93" viewBox="0 0 601 171.93">
  <g id="imrzproducts-mid" transform="translate(-1027 -4496)">
    <text id="PRODUCTS" transform="translate(1027 4612)" fill="#fff" font-size="110" font-family="Poppins-Bold, Poppins" font-weight="700"><tspan x="0" y="0">PRODUCTS</tspan></text>
    <g id="brand" transform="translate(1093.406 4541.781)">
      <path id="Path_1863" data-name="Path 1863" d="M105.526,36.226c5.433,0,9.054,3.033,10.413,6.745V36.543h2.036v24.58h-2.036V54.648c-1.359,3.76-5.024,6.837-10.413,6.837-6.879,0-11.858-4.935-11.858-12.674,0-7.787,4.98-12.585,11.858-12.585m.273,1.766c-5.929,0-10.048,4.03-10.048,10.82S99.87,59.675,105.8,59.675c5.748,0,10.14-4.211,10.14-10.864,0-6.564-4.392-10.82-10.14-10.82" transform="translate(167.195 64.663)" fill="#fff"/>
      <path id="Path_1862" data-name="Path 1862" d="M87.494,33.755V65.534h13.85V63.813H89.529V33.755Z" transform="translate(156.174 60.252)" fill="#fff"/>
      <path id="Path_1864" data-name="Path 1864" d="M117.509,41.738c6.879,0,11.858,4.8,11.858,12.585,0,7.739-4.98,12.674-11.858,12.674-5.386,0-9.054-3.033-10.413-6.79v6.428H105.06v-33.5H107.1v15.39a10.655,10.655,0,0,1,10.413-6.79m-.317,1.766c-5.7,0-10.1,4.255-10.1,10.82,0,6.653,4.392,10.864,10.1,10.864,5.977,0,10.1-4.074,10.1-10.864s-4.119-10.82-10.1-10.82" transform="translate(187.529 59.151)" fill="#fff"/>
      <path id="Path_1866" data-name="Path 1866" d="M58.146,54.238l4.712,11.293H75.563V33.757h-8.87L60.775,47.935l-2.629,6.3" transform="translate(103.789 60.256)" fill="#fff"/>
      <rect id="Rectangle_666" data-name="Rectangle 666" width="7.739" height="31.771" transform="translate(128.844 94.015)" fill="#fff"/>
      <path id="Path_1867" data-name="Path 1867" d="M99.737,33.757H77.287v5.885H90.822l-13.535,20v5.882h22.45V59.646H86.2l13.532-20Z" transform="translate(137.955 60.256)" fill="#fff"/>
      <path id="Path_1868" data-name="Path 1868" d="M84.964,48.874a9.89,9.89,0,0,0,1.674-5.386,9.041,9.041,0,0,0-3.077-6.879q-3.079-2.849-8.6-2.852H69.31L80.444,52.274a8.657,8.657,0,0,0,4.52-3.4" transform="translate(123.717 60.256)" fill="#fff"/>
      <path id="Path_1869" data-name="Path 1869" d="M64.734,51.524,60.593,41.6l-4.138,9.92Z" transform="translate(100.77 74.262)" fill="#fff"/>
      <path id="Path_1870" data-name="Path 1870" d="M68.9,54.238l-2.629-6.3L60.351,33.757h-8.87V65.531H64.186L68.9,54.238" transform="translate(91.893 60.256)" fill="#fff"/>
      <path id="Path_1871" data-name="Path 1871" d="M72.578,33.757h-5.74V65.528H91.685Z" transform="translate(119.303 60.256)" fill="#fff"/>
      <path id="Path_1865" data-name="Path 1865" d="M125.119,61.486c-5.386,0-9.19-2.445-9.642-6.971h2.083c.315,3.122,2.9,5.205,7.558,5.205,3.849,0,6.11-2.264,6.11-4.935,0-6.79-15.072-2.852-15.072-12.176,0-3.439,3.348-6.383,8.146-6.383,5.116,0,8.511,2.671,8.784,7.244h-2.039c-.181-3.077-2.442-5.523-6.79-5.523-3.576,0-6.066,2.128-6.066,4.662,0,7.606,14.939,3.576,15.028,12.176,0,3.849-3.395,6.7-8.1,6.7" transform="translate(206.123 64.663)" fill="#fff"/>
    </g>
  </g>
</svg>
