<svg width="50" height="50" viewBox="0 0 50 50" fill="none" xmlns="http://www.w3.org/2000/svg">
<path d="M22.5402 21.8161H26.7573V23.1993H26.8416C27.3814 22.3559 28.2754 21.5124 30.4768 21.5124C33.201 21.5124 35.2337 23.3089 35.2337 27.2224V35.1084H31.1009V27.7453C31.1009 26.0585 30.5021 24.8608 29.0092 24.8608C28.5411 24.8646 28.0864 25.017 27.7104 25.2959C27.3345 25.5748 27.0569 25.9659 26.9175 26.4127C26.8264 26.7476 26.795 27.0959 26.8248 27.4417V35.1169H22.692V25.1223" stroke="white" stroke-width="2" stroke-linecap="round" stroke-linejoin="round"/>
<path d="M19.4028 25.1892V35.226H15.2784V21.8155H19.4028" stroke="white" stroke-width="2" stroke-linecap="round" stroke-linejoin="round"/>
<path d="M19.6726 17.3194C19.676 17.7822 19.5418 18.2355 19.2871 18.6219C19.0324 19.0083 18.6687 19.3104 18.2422 19.4898C17.8156 19.6693 17.3453 19.7179 16.891 19.6297C16.4367 19.5415 16.0188 19.3203 15.6904 18.9942C15.362 18.6682 15.1378 18.2519 15.0463 17.7983C14.9547 17.3446 15 16.874 15.1763 16.4462C15.3527 16.0183 15.6521 15.6524 16.0366 15.3949C16.4212 15.1375 16.8736 15 17.3363 15" stroke="white" stroke-width="2" stroke-linecap="round" stroke-linejoin="round"/>
</svg>
