<svg width="63" height="70" viewBox="0 0 63 70" fill="none" xmlns="http://www.w3.org/2000/svg">
<path d="M30.1801 0.0649462C29.7748 0.120845 29.146 0.288543 28.7826 0.428291C28.4333 0.554065 23.5141 3.33505 17.8683 6.60516C12.2225 9.86129 6.59064 13.1034 5.37483 13.8162C2.24447 15.6049 1.23828 16.5971 0.38582 18.7213L0.0504246 19.5598L0.00850018 34.4989C-0.0194494 44.1695 0.022475 49.7035 0.120299 50.2205C0.190173 50.6538 0.511593 51.5202 0.819039 52.1351C1.81125 54.1614 1.64355 54.0496 15.4367 62.0013C22.1865 65.9003 28.0699 69.2403 28.4892 69.4359C30.222 70.2325 32.486 70.1766 34.2887 69.3241C34.8337 69.0726 38.0619 67.2419 41.4857 65.2714C44.9096 63.287 50.3458 60.1427 53.56 58.298C60.3098 54.413 60.8269 54.0217 61.7492 52.1351C62.0567 51.5202 62.3781 50.6538 62.448 50.2205C62.5458 49.7035 62.5877 44.1695 62.5598 34.4989L62.5178 19.5598L62.1824 18.7213C61.5675 17.1981 60.6452 15.9962 59.4434 15.1577C59.1359 14.9481 56.4388 13.369 53.4342 11.6361C50.4436 9.90321 44.9235 6.73093 41.1923 4.56484C37.461 2.41271 34.0372 0.526115 33.576 0.372392C32.5698 0.0369966 31.2003 -0.0887767 30.1801 0.0649462ZM42.5339 14.3752C56.2711 22.3128 55.4186 21.8098 55.6702 22.2849C55.9497 22.8299 55.9357 23.3889 55.6003 23.92C54.9435 24.996 54.1609 24.9681 52.0647 23.7662C51.1843 23.2631 50.4296 22.8439 50.3877 22.8439C50.3318 22.8439 50.2759 28.881 50.2619 36.2597L50.22 49.6755L49.7588 50.1227C49.3675 50.514 49.2138 50.5839 48.6129 50.5839C48.012 50.5839 47.8583 50.514 47.467 50.1227L47.0058 49.6755L46.9639 35.2396L46.9359 20.8036L45.217 19.8114C40.3957 17.0024 33.0589 12.782 33.017 12.782C32.9891 12.782 32.9611 17.4077 32.9611 23.0535V33.311L36.6644 33.353L40.3678 33.3949L40.8149 33.856C41.2062 34.2473 41.2761 34.4011 41.2761 35.002C41.2761 35.6029 41.2062 35.7566 40.8149 36.1479L40.3678 36.6091L36.6644 36.651L32.9611 36.6929V48.5715C32.9611 61.61 32.9891 61.093 32.1366 61.596C31.3121 62.0852 30.222 61.7637 29.8168 60.9113C29.6351 60.52 29.6072 57.4595 29.6072 34.9321C29.6072 11.6361 29.6211 9.37217 29.8307 9.0228C29.9565 8.81318 30.222 8.53368 30.4317 8.39393C31.2562 7.86289 31.2422 7.86289 42.5339 14.3752ZM22.9551 17.1002L23.3884 17.5335V35.002V52.4705L22.9272 52.9177C22.5359 53.309 22.3822 53.3789 21.7813 53.3789C21.2362 53.3789 21.0266 53.309 20.7052 53.0015C20.4257 52.736 19.0142 49.6616 15.7721 42.2829L11.2303 31.9415L11.1604 39.404L11.0905 46.8806L10.6294 47.3278C10.2381 47.7191 10.0843 47.7889 9.48342 47.7889C8.88251 47.7889 8.72878 47.7191 8.33749 47.3278L7.87632 46.8806V35.002V23.1234L8.33749 22.6762C8.72878 22.2849 8.88251 22.215 9.48342 22.215C10.0704 22.215 10.2381 22.2849 10.5874 22.6343C10.8669 22.9277 12.3483 26.1419 15.5066 33.353L20.0344 43.6524L20.1043 30.5999L20.1742 17.5614L20.5235 17.1841C20.9847 16.681 21.3201 16.5413 21.9769 16.6111C22.3542 16.653 22.6617 16.8068 22.9551 17.1002Z" fill="#1D2445"/>
</svg>
