<svg width="11" height="16" viewBox="0 0 11 16" fill="none" xmlns="http://www.w3.org/2000/svg">
<path d="M0.838306 14.4166L1.66664 15.1791C1.83961 15.335 2.0642 15.4213 2.29706 15.4213C2.52991 15.4213 2.7545 15.335 2.92747 15.1791L10.1591 8.50494C10.2419 8.43198 10.3083 8.34222 10.3537 8.24164C10.3991 8.14106 10.4226 8.03197 10.4226 7.92161C10.4226 7.81125 10.3991 7.70215 10.3537 7.60157C10.3083 7.50099 10.2419 7.41124 10.1591 7.33827L2.92747 0.660776C2.7545 0.504889 2.52991 0.418616 2.29706 0.418616C2.0642 0.418616 1.83961 0.504889 1.66664 0.660776L0.840806 1.42328C0.75758 1.49771 0.691268 1.58912 0.646332 1.69133C0.601397 1.79355 0.578882 1.9042 0.580303 2.01585C0.581725 2.1275 0.607049 2.23755 0.654571 2.33859C0.702094 2.43963 0.770712 2.52931 0.855805 2.60161L5.33831 6.54744V9.29744L0.855805 13.2408C0.770245 13.3124 0.70113 13.4017 0.653165 13.5024C0.6052 13.6032 0.579513 13.7131 0.577852 13.8247C0.576192 13.9363 0.598596 14.0469 0.643541 14.149C0.688486 14.2512 0.754915 14.3424 0.838306 14.4166V14.4166Z" fill="url(#paint0_linear_4324_35218)"/>
<defs>
<linearGradient id="paint0_linear_4324_35218" x1="-1.71936" y1="15.4213" x2="15.1549" y2="8.3742" gradientUnits="userSpaceOnUse">
<stop stop-color="#11FAEC"/>
<stop offset="0.322849" stop-color="#0EB2F9"/>
<stop offset="0.697567" stop-color="#8451BD"/>
<stop offset="0.837337" stop-color="#CE17D6"/>
<stop offset="1" stop-color="#FE36AE"/>
</linearGradient>
</defs>
</svg>
