<svg width="62" height="70" viewBox="0 0 62 70" fill="none" xmlns="http://www.w3.org/2000/svg">
<path d="M27.6833 0.0840596C13.1312 1.7116 1.71104 13.1181 0.138208 27.6018C-0.0669444 29.4345 -0.0395908 32.6622 0.192915 34.5496C1.88884 48.6231 12.885 59.715 26.9858 61.5613C30.0357 61.958 34.4944 61.7802 37.3939 61.1374C46.7351 59.0585 54.4489 53.027 58.6613 44.479C62.7097 36.2866 62.8738 26.5761 59.099 18.1785C56.6508 12.7214 52.37 7.85249 47.1044 4.52903C43.8356 2.4775 39.6232 0.918345 35.6022 0.275535C34.002 0.0293524 29.2562 -0.093739 27.6833 0.0840596ZM33.4276 7.87984C42.3722 8.9056 49.9765 15.0328 52.7803 23.4577C53.7377 26.3162 53.9291 27.5334 53.9291 30.7885C53.9428 33.2503 53.9018 33.8795 53.6282 35.2061C51.6588 44.9714 43.9177 52.3432 34.1525 53.7792C32.0462 54.0801 28.4082 53.9844 26.4251 53.5741C17.0838 51.6183 10.0539 44.5337 8.1665 35.2061C7.89296 33.8795 7.85193 33.2503 7.86561 30.7885C7.86561 27.5334 8.05709 26.3162 9.01446 23.4577C10.601 18.6845 13.7877 14.5268 18.0275 11.682C22.5819 8.63207 28.0936 7.27806 33.4276 7.87984Z" fill="#1D2445"/>
<path d="M28.8456 10.164C25.44 10.5333 21.7747 11.8873 18.9846 13.8294C17.3844 14.9372 14.7448 17.6316 13.678 19.2181C12.1188 21.5705 10.9836 24.3059 10.4229 27.0959C10.0536 28.997 10.081 33.0453 10.505 34.9601C12.2966 43.2483 18.4375 49.4439 26.6846 51.2492C28.531 51.6458 31.8681 51.7552 33.865 51.4543C42.5908 50.1687 49.4155 43.6859 51.3029 34.9054C51.6995 33.0317 51.7406 28.956 51.3713 27.0959C50.496 22.7741 48.6496 19.3275 45.545 16.2092C42.0437 12.7216 38.0911 10.7932 33.2221 10.2051C32.128 10.082 29.885 10.0546 28.8456 10.164ZM31.622 14.609C31.8955 14.8689 35.0275 20.0661 39.3357 27.4242C40.3478 29.1611 40.5256 29.7356 40.1563 30.2142C39.9511 30.5151 31.5262 33.7429 30.9655 33.7429C30.5278 33.7565 22.5269 30.775 21.9388 30.392C21.3917 30.0228 21.3643 29.5851 21.8704 28.6277C22.8825 26.6856 29.8713 15.033 30.2269 14.6774C30.7056 14.226 31.1843 14.1987 31.622 14.609ZM26.794 34.8233C28.9687 35.6439 30.8424 36.3278 30.9518 36.3278C31.0612 36.3278 32.9213 35.6576 35.0959 34.8233C37.2568 34.0027 39.1989 33.3189 39.3904 33.3189C39.8554 33.3189 40.3751 33.8933 40.3751 34.3994C40.3751 34.7002 39.4041 36.109 36.2174 40.4445C33.9333 43.5628 31.8955 46.2708 31.6903 46.476C31.28 46.9 30.8287 46.9683 30.391 46.6538C30.1038 46.4486 21.9525 35.4935 21.6242 34.8644C21.5285 34.7002 21.4601 34.4404 21.4601 34.2763C21.4601 33.8796 22.0619 33.3189 22.4722 33.3189C22.6636 33.3189 24.6058 33.989 26.794 34.8233Z" fill="#1D2445"/>
<path d="M0.479814 44.7388C1.56028 49.9907 3.61181 54.4493 6.81218 58.4429L7.71485 59.5781L7.75588 57.2531L7.78323 54.9143L6.59335 53.5877C4.22726 50.9754 2.87326 49.0607 1.32778 46.1065C0.808058 45.1217 0.425107 44.5063 0.479814 44.7388Z" fill="#1D2445"/>
<path d="M60.603 45.8329C59.2079 48.6367 57.5257 51.0438 55.1459 53.6561L54.0107 54.9007L54.0381 57.2394L54.0791 59.5645L54.7766 58.7165C56.9786 56.0358 58.784 52.8355 60.0422 49.3889C60.4252 48.3358 61.4373 44.5336 61.3552 44.4516C61.3415 44.4242 60.9996 45.0534 60.603 45.8329Z" fill="#1D2445"/>
<path d="M10.1084 59.4962V61.9991L11.1068 62.8197C12.9395 64.3378 15.1278 65.7739 17.2203 66.827L18.041 67.2373V64.3789C18.041 61.5204 18.041 61.5067 17.7401 61.411C16.5502 61.0554 13.1036 59.0859 11.2846 57.7456C10.7102 57.3216 10.2178 56.9797 10.1768 56.9797C10.1358 56.9797 10.1084 58.1149 10.1084 59.4962Z" fill="#1D2445"/>
<path d="M50.3872 57.8276C49.0195 58.8671 47.1047 60.0023 45.2173 60.8776L43.7676 61.5614L43.7539 64.4062V67.2646L45.19 66.4987C47.05 65.514 48.6776 64.4472 50.3461 63.0932L51.6865 62.0264V59.4962C51.6865 58.1149 51.6454 56.9797 51.5907 56.9934C51.5223 56.9934 50.9889 57.3763 50.3872 57.8276Z" fill="#1D2445"/>
<path d="M20.3662 65.3225V68.181L21.7065 68.5913C23.7034 69.1931 25.3309 69.535 27.2867 69.7675C28.2577 69.8769 29.1878 69.9727 29.3519 69.9727H29.6664V67.0321V64.0916H29.0783C27.4371 64.0916 23.6897 63.4488 21.2962 62.7376L20.3662 62.4641V65.3225Z" fill="#1D2445"/>
<path d="M40.2656 62.806C38.556 63.3394 36.0669 63.8044 34.0153 63.9822L32.1279 64.1463V67.0732V70L33.1947 69.9179C35.7523 69.6854 38.4193 69.1657 40.5802 68.4545L41.4282 68.1673V65.3089C41.4282 63.736 41.4145 62.4504 41.4008 62.4641C41.3735 62.4641 40.8674 62.6145 40.2656 62.806Z" fill="#1D2445"/>
</svg>
