<svg xmlns="http://www.w3.org/2000/svg" width="25.934" height="21.194" viewBox="0 0 25.934 21.194">
  <path id="Twitter" d="M18.84,26.19a12.241,12.241,0,0,1-3.36-1.85,5.4,5.4,0,0,1-1.82-3.77c0-.58-.2-3.5.78-3.43.16,0,.3.15.4.27a10.993,10.993,0,0,0,.81.87h0a12,12,0,0,0,8.89,3.36,4.94,4.94,0,0,1,7.23-5.17,6.149,6.149,0,0,0,1.58.79,3.9,3.9,0,0,0,1.23,0l3-.34a18.051,18.051,0,0,0-2.56,3.93A18.35,18.35,0,0,0,34.09,25a12.2,12.2,0,0,1-5.16,7.79h0a9.7,9.7,0,0,1-1.18.68h0a11.071,11.071,0,0,1-1.72.78l-.55.19-.61.17a18.33,18.33,0,0,1-8.61-.14l-1.17-.27-1.37-.38a10.48,10.48,0,0,0,4.76-1.46c.29-.17.59-.41.55-.73a.83.83,0,0,0-.38-.56,13.922,13.922,0,0,1-2.67-3.16" transform="translate(-12.646 -14.869)" fill="none" stroke="#fff" stroke-linecap="round" stroke-linejoin="round" stroke-width="2"/>
</svg>
