<svg id="ventures" xmlns="http://www.w3.org/2000/svg" xmlns:xlink="http://www.w3.org/1999/xlink" width="576.154" height="127.398" viewBox="0 0 576.154 127.398">
  <defs>
    <clipPath id="clip-path">
      <rect id="Rectangle_665" data-name="Rectangle 665" width="576.154" height="127.398" fill="none"/>
    </clipPath>
  </defs>
  <path id="Path_1836" data-name="Path 1836" d="M106.877,34.2V65.983h13.85V64.262H108.915V34.2Z" transform="translate(190.772 61.053)" fill="#fff"/>
  <g id="Group_1689" data-name="Group 1689" transform="translate(0 0)">
    <g id="Group_1688" data-name="Group 1688" clip-path="url(#clip-path)">
      <path id="Path_1837" data-name="Path 1837" d="M124.91,36.675c5.434,0,9.054,3.033,10.413,6.745V36.992h2.036v24.58h-2.036V55.1c-1.359,3.76-5.024,6.837-10.413,6.837-6.879,0-11.858-4.935-11.858-12.674,0-7.787,4.979-12.585,11.858-12.585m.273,1.766c-5.929,0-10.048,4.03-10.048,10.82s4.119,10.864,10.048,10.864c5.748,0,10.14-4.211,10.14-10.864,0-6.564-4.392-10.82-10.14-10.82" transform="translate(201.794 65.464)" fill="#fff"/>
      <path id="Path_1838" data-name="Path 1838" d="M136.893,42.187c6.879,0,11.858,4.8,11.858,12.585,0,7.739-4.979,12.674-11.858,12.674-5.386,0-9.054-3.033-10.413-6.79v6.428h-2.036v-33.5h2.036v15.39a10.655,10.655,0,0,1,10.413-6.79m-.317,1.766c-5.7,0-10.1,4.255-10.1,10.82,0,6.653,4.392,10.864,10.1,10.864,5.977,0,10.1-4.074,10.1-10.864s-4.119-10.82-10.1-10.82" transform="translate(222.129 59.952)" fill="#fff"/>
      <path id="Path_1839" data-name="Path 1839" d="M144.5,61.935c-5.386,0-9.19-2.445-9.642-6.971h2.083c.315,3.122,2.9,5.205,7.558,5.205,3.849,0,6.11-2.264,6.11-4.935,0-6.79-15.072-2.852-15.072-12.176,0-3.439,3.35-6.383,8.146-6.383,5.116,0,8.511,2.671,8.784,7.244h-2.039c-.181-3.077-2.442-5.523-6.79-5.523-3.576,0-6.066,2.128-6.066,4.662,0,7.606,14.939,3.576,15.028,12.176,0,3.849-3.395,6.7-8.1,6.7" transform="translate(240.721 65.464)" fill="#fff"/>
      <path id="Path_1840" data-name="Path 1840" d="M77.53,54.687,82.242,65.98H94.947V34.206h-8.87L80.159,48.384l-2.629,6.3" transform="translate(138.388 61.057)" fill="#d8006b"/>
      <rect id="Rectangle_664" data-name="Rectangle 664" width="7.739" height="31.771" transform="translate(182.828 95.265)" fill="#0090df"/>
      <path id="Path_1841" data-name="Path 1841" d="M119.12,34.206H96.67v5.885h13.535L96.67,60.1v5.882h22.45V60.1H105.588l13.532-20Z" transform="translate(172.554 61.058)" fill="#0090df"/>
      <path id="Path_1842" data-name="Path 1842" d="M104.348,49.323a9.89,9.89,0,0,0,1.674-5.386,9.041,9.041,0,0,0-3.077-6.879q-3.079-2.849-8.6-2.852H88.694L99.828,52.723a8.657,8.657,0,0,0,4.52-3.4" transform="translate(158.316 61.057)" fill="#d8006b"/>
      <path id="Path_1843" data-name="Path 1843" d="M84.118,51.973l-4.141-9.92-4.138,9.92Z" transform="translate(135.368 75.063)" fill="#fff"/>
      <path id="Path_1844" data-name="Path 1844" d="M88.282,54.687l-2.629-6.3L79.735,34.206h-8.87V65.98H83.57l4.712-11.293" transform="translate(126.491 61.057)" fill="#0090df"/>
      <path id="Path_1845" data-name="Path 1845" d="M91.961,34.206h-5.74V65.977h24.847Z" transform="translate(153.902 61.058)" fill="#0090df"/>
      <path id="Path_1846" data-name="Path 1846" d="M78.152.316V14.623H50.2V31.241H74.849V45.55H50.2V63.49H78.152V77.8H31.378V.316Z" transform="translate(56.009 0.565)" fill="#fff"/>
      <path id="Path_1847" data-name="Path 1847" d="M104.279.316H123.1V77.8H104.279L72.8,29.04V77.8H53.982V.316H72.8l31.476,48.756Z" transform="translate(96.357 0.565)" fill="#fff"/>
      <path id="Path_1848" data-name="Path 1848" d="M82.831,14.7V.4h60.974V14.7H122.673V77.655H103.852V14.7Z" transform="translate(147.851 0.706)" fill="#fff"/>
      <path id="Path_1849" data-name="Path 1849" d="M108.636,46.508V.395h18.821V46.508q0,6.935,3.412,10.678t10.015,3.743q6.6,0,10.126-3.743t3.52-10.678V.395H173.35V46.508a31.905,31.905,0,0,1-4.787,17.665,28.752,28.752,0,0,1-12.106,10.842,37.157,37.157,0,0,1-15.9,3.412q-13.426,0-22.67-8.366t-9.246-23.552" transform="translate(193.912 0.706)" fill="#fff"/>
      <path id="Path_1850" data-name="Path 1850" d="M210.815.316V14.623H182.86V31.241h24.653V45.55H182.86V63.49h27.956V77.8H164.042V.316Z" transform="translate(292.81 0.565)" fill="#fff"/>
      <path id="Path_1851" data-name="Path 1851" d="M213.9,14.858a8.76,8.76,0,0,0-5.779,1.871,6.61,6.61,0,0,0-2.256,5.392,7.772,7.772,0,0,0,2.091,5.67,13.64,13.64,0,0,0,5.447,3.3q3.354,1.153,7.483,2.2a85.5,85.5,0,0,1,8.2,2.532,35.953,35.953,0,0,1,7.428,3.69,16.185,16.185,0,0,1,5.447,6.216,20.639,20.639,0,0,1,2.091,9.63q0,9.8-7.979,16.782t-21.021,6.99q-13.042,0-21.021-6.275t-7.982-17.827h20.032q.769,9.245,9.466,9.243a9.029,9.029,0,0,0,6.383-2.144,7.113,7.113,0,0,0,2.309-5.447,7.306,7.306,0,0,0-2.089-5.394,14.579,14.579,0,0,0-5.45-3.3q-3.355-1.216-7.483-2.259a75.616,75.616,0,0,1-8.2-2.587,39.9,39.9,0,0,1-7.43-3.684,15.746,15.746,0,0,1-5.447-6.166,20.331,20.331,0,0,1-2.092-9.519,21.1,21.1,0,0,1,8.035-17.278Q202.121,0,214.616,0t20.194,5.667q7.7,5.673,8.035,17.885h-20.47a10.337,10.337,0,0,0-2.7-6.436,7.832,7.832,0,0,0-5.779-2.259" transform="translate(332.099 0.001)" fill="#fff"/>
      <path id="Path_1852" data-name="Path 1852" d="M17.2,31.155,7.192.395Z" transform="translate(12.837 0.706)" fill="#0090df"/>
      <path id="Path_1853" data-name="Path 1853" d="M30.033,31.155h0L20.03.4H0L27.4,77.658h3.013L37.787,55Z" transform="translate(0 0.706)" fill="#0090df"/>
      <path id="Path_1854" data-name="Path 1854" d="M32.326.395l-17.757,54.6Z" transform="translate(26.005 0.706)" fill="#d8006b"/>
      <path id="Path_1855" data-name="Path 1855" d="M32.326.4l-17.757,54.6,7.369,22.661h3.013L52.355.4Z" transform="translate(26.005 0.707)" fill="#d8006b"/>
      <path id="Path_1856" data-name="Path 1856" d="M11.922,39.918H23.878L17.9,21.538Z" transform="translate(21.28 38.444)" fill="#fff"/>
      <path id="Path_1857" data-name="Path 1857" d="M18.538,35.282h0L10.784,11.44Z" transform="translate(19.25 20.42)" fill="#0090df"/>
      <path id="Path_1858" data-name="Path 1858" d="M14.068,21.538Z" transform="translate(25.111 38.445)" fill="#0090df"/>
      <path id="Path_1859" data-name="Path 1859" d="M10.784,11.44h0l7.753,23.842Z" transform="translate(19.25 20.42)" fill="#0090df"/>
      <path id="Path_1860" data-name="Path 1860" d="M14.068,21.538Z" transform="translate(25.111 38.445)" fill="#0090df"/>
      <path id="Path_1861" data-name="Path 1861" d="M156.456,47.6V77.646H137.635V.386h30.487q13.426,0,20.912,6.935a21.992,21.992,0,0,1,7.483,16.726,24.1,24.1,0,0,1-4.072,13.1q-4.073,6.383-13.315,9.023l18.927,31.476H176.045L158.659,47.6Zm0-32.907v18.6h11.666a8.62,8.62,0,0,0,9.246-9.19,9.381,9.381,0,0,0-2.532-6.767,8.87,8.87,0,0,0-6.715-2.643Z" transform="translate(245.674 0.69)" fill="#fff"/>
    </g>
  </g>
</svg>
