<svg width="70" height="70" viewBox="0 0 70 70" fill="none" xmlns="http://www.w3.org/2000/svg">
<rect width="70" height="70" rx="35" fill="#1D2445"/>
<path d="M51.13 18.128C47.1811 14.1532 41.3926 11.9688 35 11.9688C28.0499 11.9688 22.0078 14.0885 18.1116 18.251C15.937 18.6537 13.8645 19.4634 12.0006 20.6312C16.556 12.9772 24.8528 8.70312 35 8.70312C45.2945 8.70312 53.55 12.9868 58.0562 20.6674C55.9604 19.3428 53.6003 18.4742 51.13 18.128Z" fill="white" stroke="white"/>
<path d="M18.8974 51.913C22.8462 55.8878 28.6348 58.0723 35.0273 58.0723C41.9775 58.0723 48.0195 55.9525 51.9158 51.7901C54.0903 51.3873 56.1629 50.5776 58.0268 49.4098C53.4714 57.0638 45.1746 61.3379 35.0273 61.3379C24.7328 61.3379 16.4773 57.0542 11.9711 49.3736C14.067 50.6982 16.4271 51.5669 18.8974 51.913Z" fill="white" stroke="white"/>
<path d="M48.6727 47.082L48.6704 47.082C45.6401 47.0856 42.7282 45.9063 40.5545 43.7955L40.4577 43.6988L40.3448 43.6139C39.9433 43.3123 39.5125 43.0516 39.059 42.8359L39.0505 42.8319L39.0421 42.828C37.7729 42.2389 36.3883 41.9407 34.9893 41.9551C33.2399 41.957 31.8754 42.394 30.9473 42.8353C30.4929 43.0506 30.0613 43.3109 29.659 43.6123L29.5448 43.6978L29.448 43.7946C28.7913 44.4307 28.0647 44.9849 27.2842 45.448C26.4365 45.951 25.5252 46.3465 24.5712 46.6224C22.7343 47.1537 20.7951 47.2256 18.9239 46.8317C17.0527 46.4378 15.307 45.5903 13.8402 44.3636C12.3734 43.1368 11.2304 41.5685 10.5118 39.7965C9.79321 38.0245 9.52097 36.1031 9.71903 34.2012C9.91709 32.2993 10.5794 30.4752 11.6477 28.8893C12.716 27.3034 14.1575 26.0042 15.8456 25.106C17.5337 24.2079 19.4166 23.7382 21.3288 23.7383H21.3289H48.6727C51.7683 23.7383 54.737 24.968 56.9259 27.1569C59.1148 29.3458 60.3446 32.3146 60.3446 35.4102C60.3446 38.5057 59.1148 41.4745 56.9259 43.6634C54.737 45.8523 51.7683 47.082 48.6727 47.082Z" stroke="white" stroke-width="4"/>
<rect x="7" y="36" width="2" height="5" transform="rotate(-90 7 36)" fill="#1D2445"/>
<rect x="58" y="36" width="2" height="5" transform="rotate(-90 58 36)" fill="#1D2445"/>
</svg>
